<?xml version="1.0" standalone="no"?>
<!DOCTYPE svg PUBLIC "-//W3C//DTD SVG 1.1//EN" "http://www.w3.org/Graphics/SVG/1.1/DTD/svg11.dtd" >
<svg xmlns="http://www.w3.org/2000/svg">
<metadata>
Created by FontForge 20120731 at Mon Dec  5 15:13:20 2016
 By admin
</metadata>
<defs>
<font id="iconfont" horiz-adv-x="1024" >
  <font-face 
    font-family="iconfont"
    font-weight="500"
    font-stretch="normal"
    units-per-em="1024"
    panose-1="2 0 6 3 0 0 0 0 0 0"
    ascent="896"
    descent="-128"
    x-height="792"
    bbox="-0.206898 -212.093 1902 896"
    underline-thickness="0"
    underline-position="0"
    unicode-range="U+0078-E844"
  />
<missing-glyph 
 />
    <glyph glyph-name=".notdef" 
 />
    <glyph glyph-name=".notdef" 
 />
    <glyph glyph-name=".null" horiz-adv-x="0" 
 />
    <glyph glyph-name="nonmarkingreturn" horiz-adv-x="341" 
 />
    <glyph glyph-name="x" unicode="x" horiz-adv-x="1001" 
d="M281 543q-27 -1 -53 -1h-83q-18 0 -36.5 -6t-32.5 -18.5t-23 -32t-9 -45.5v-76h912v41q0 16 -0.5 30t-0.5 18q0 13 -5 29t-17 29.5t-31.5 22.5t-49.5 9h-133v-97h-438v97zM955 310v-52q0 -23 0.5 -52t0.5 -58t-10.5 -47.5t-26 -30t-33 -16t-31.5 -4.5q-14 -1 -29.5 -0.5
t-29.5 0.5h-32l-45 128h-439l-44 -128h-29h-34q-20 0 -45 1q-25 0 -41 9.5t-25.5 23t-13.5 29.5t-4 30v167h911zM163 247q-12 0 -21 -8.5t-9 -21.5t9 -21.5t21 -8.5q13 0 22 8.5t9 21.5t-9 21.5t-22 8.5zM316 123q-8 -26 -14 -48q-5 -19 -10.5 -37t-7.5 -25t-3 -15t1 -14.5
t9.5 -10.5t21.5 -4h37h67h81h80h64h36q23 0 34 12t2 38q-5 13 -9.5 30.5t-9.5 34.5q-5 19 -11 39h-368zM336 498v228q0 11 2.5 23t10 21.5t20.5 15.5t34 6h188q31 0 51.5 -14.5t20.5 -52.5v-227h-327z" />
    <glyph glyph-name="shezhi" unicode="&#xe603;" horiz-adv-x="1000" 
d="M897 400l-71 16q-7 24 -20 50l38 63q12 19 13 39t-13 39l-39 38q-15 15 -39 15q-22 0 -40 -12l-62 -40q-25 13 -50 21l-16 72q-3 21 -19.5 37.5t-37.5 16.5h-55q-21 0 -35.5 -16.5t-19.5 -38.5l-17 -70q-28 -9 -54 -22l-63 40q-18 12 -40 12q-24 0 -39 -15l-39 -38
q-14 -19 -13 -39t13 -39l40 -66q-12 -25 -19 -47l-70 -16q-21 -4 -37.5 -20t-16.5 -38v-54q0 -21 16 -35.5t38 -19.5l71 -18q7 -21 18 -43l-40 -67q-12 -19 -13 -39t13 -38l39 -39q15 -15 39 -15q22 0 40 12l64 41q26 -14 53 -23l18 -70q5 -22 19 -38.5t35 -16.5h55
q22 0 38 17t20 38l16 71q25 8 49 21l62 -40q18 -12 40 -12q24 0 39 15l39 39q14 18 13 38t-13 39l-38 63q11 24 19 47l71 18q22 5 38.5 19.5t16.5 35.5v54q0 22 -16.5 38t-37.5 20zM907 288q0 -2 -2.5 -4t-7.5 -4.5t-11 -4.5l-71 -17l-24 -6l-7 -23q-7 -21 -17 -41l-11 -21
l12 -21l39 -64q3 -5 4.5 -10.5t1.5 -8.5v-5l-39 -38q-2 -2 -8 -2q-9 0 -15 4l-1 1h-1l-61 40l-22 13l-22 -11q-21 -11 -43 -18l-24 -8l-5 -25l-16 -71v-1q-1 -7 -6 -13t-9 -6h-55q-1 0 -3 2.5t-4.5 8t-4.5 11.5l-17 70l-6 24l-24 7q-23 7 -46 19l-23 12l-21 -13l-63 -41h-1
l-1 -1q-7 -4 -15 -4q-6 0 -8 2l-39 38v5t1.5 8.5t5.5 10.5l40 67l12 21l-10 21q-10 19 -16 38l-8 23l-23 6l-72 18q-6 1 -11 3.5t-7.5 4.5t-2.5 4v54q0 4 6 9t13 6v0h1l71 16l24 5l8 24q6 19 17 41l10 22l-12 20l-41 67q-3 6 -4.5 11.5t-1.5 8v4.5l39 38q2 2 8 2q9 0 15 -4
l1 -1h1l63 -40l21 -14l23 12q23 12 46 19l23 8l6 23l18 71q1 6 3.5 11t5 7.5t3.5 2.5h55q3 0 8 -6t6 -12v-1l1 -1l15 -71l6 -24l24 -8q21 -7 43 -18l22 -12l22 14l61 39h1l1 1q6 4 15 4q6 0 8 -2l39 -38v-4.5t-2 -8.5t-5 -11l-38 -63l-12 -21l11 -22q11 -22 18 -43l7 -25
l25 -5l70 -16h1h1q6 -1 12 -6t6 -9v-54zM513.5 493q-72.5 0 -124 -51.5t-51.5 -124t51.5 -124t124 -51.5t124 51.5t51.5 124t-51.5 124t-124 51.5zM514 185q-55 0 -93.5 38.5t-38.5 93t38.5 93.5t93.5 39t93.5 -39t38.5 -93.5t-38.5 -93t-93.5 -38.5z" />
    <glyph glyph-name="fanhui" unicode="&#xe601;" 
d="M625 692l-40 40l-365 -366l365 -366l40 40l-326 326z" />
    <glyph glyph-name="heibaicai" unicode="&#xe600;" 
d="M687 35q3 -13 5 -20q-2 9 -5 20zM957 635q-18 42 -33.5 71.5t-22.5 37.5l-7 9q2 -7 5 -17t0 -35.5t-18 -43.5q-11 -12 -44.5 -27t-67.5 -29t-68.5 -43t-49.5 -67q-18 -46 -23 -86q-50 265 -256 296q-66 11 -117.5 6t-78.5 -16t-67.5 -20t-85.5 -7q5 -1 13 -4t30.5 -15
t42 -28.5t42 -46.5t36.5 -66q125 -334 353 -354q118 -10 147 -115q-1 2 -2 8q-7 33 -12 53t-17.5 60.5t-25 69.5t-34 72.5t-46 76t-60 73t-76.5 72t-95.5 63.5t-116.5 57q2 -1 7 -1q26 -3 44.5 -6t60.5 -14.5t74.5 -26t75.5 -43t74.5 -64.5t60.5 -91t45 -121q-5 -72 34 -181
q-2 6 -4.5 15.5t-8.5 35.5t-9 48.5t-2 45.5t7 34q12 18 33.5 28.5t61.5 22t61 19.5q27 11 58 38.5t58 68t35 88.5t-11 99zM782 459q-4 -3 -14.5 -12.5t-16.5 -14.5t-16.5 -15t-17.5 -16.5t-16.5 -15.5t-15.5 -16t-12.5 -14.5t-10.5 -14.5t-6 -12q-9 -24 -12 -51q-4 49 -8 82
q26 62 71 103q17 15 86 66t102 82q-6 -25 -43.5 -73.5t-69.5 -77.5z" />
    <glyph glyph-name="saoyisao" unicode="&#xe631;" 
d="M928 269h-833q-14 0 -23.5 9.5t-9.5 22.5t9.5 22.5t23.5 9.5h833q14 0 23 -9.5t9 -22.5t-9 -22.5t-23 -9.5v0zM832 -116h-192q-14 0 -23 9.5t-9 23t9 22.5t23 9h192q13 0 22.5 9.5t9.5 22.5v161q0 13 9.5 22.5t23 9.5t22.5 -9.5t9 -22.5v-161q0 -39 -28 -67.5t-68 -28.5
v0zM351 -116h-160q-40 0 -68 28.5t-28 67.5v161q0 13 9 22.5t22.5 9.5t23 -9.5t9.5 -22.5v-161q0 -13 9 -22.5t23 -9.5h160q13 0 22.5 -9t9.5 -22.5t-9.5 -23t-22.5 -9.5v0zM127 429q-14 0 -23 9.5t-9 22.5v161q0 40 28 68t68 28h160q13 0 22.5 -9.5t9.5 -22.5t-9.5 -22.5
t-22.5 -9.5h-160q-14 0 -23 -9.5t-9 -22.5v-161q0 -13 -9.5 -22.5t-22.5 -9.5v0zM896 429q-13 0 -22.5 9.5t-9.5 22.5v161q0 13 -9.5 22.5t-22.5 9.5h-192q-14 0 -23 9.5t-9 22.5t9 22.5t23 9.5h192q40 0 68 -28t28 -68v-161q0 -13 -9 -22.5t-23 -9.5v0zM896 429z" />
    <glyph glyph-name="dianziyinhang" unicode="&#xe652;" 
d="M545 521v-51h-106v-28h106v-48h-106v-88h-56v88h-107v48h107v28h-107v51h84l-104 192h62l77 -142q9 -19 15 -32q10 22 17 34l72 140h66l-104 -192h84zM870 161h-716q-37 0 -63.5 26.5t-26.5 63.5v465q0 37 26.5 63.5t63.5 26.5h716q37 0 63.5 -26.5t26.5 -63.5v-465
q-1 -37 -27 -63.5t-63 -26.5zM924 716q0 22 -16 38t-38 16h-716q-22 0 -38 -15.5t-16 -38.5v-465q0 -22 16 -38t38 -16h716q22 0 38 16t16 38v465zM808 343l-29 -21l-48 68l-45 -32l-32 164l154 -87l-46 -27zM351 54h36v71h250v-71h36q37 0 63.5 -26.5t26.5 -63.5h-502
q0 37 26.5 63.5t63.5 26.5z" />
    <glyph glyph-name="close" unicode="&#xe641;" 
d="M750 168v1v0v0v-1zM725 181v0v0v0v0zM868 -34l-322 322l322 322q7 7 7 17t-7 17t-17 7t-17 -7v0l-322 -322l-322 322q-7 7 -17 7t-17 -7t-7 -17t7 -17v0l322 -322l-322 -322q-7 -7 -7 -17t7 -17t17 -7t17 7v0l322 322l322 -322q7 -7 17 -7t17 7t7 17t-7 17v0z" />
    <glyph glyph-name="minus65" unicode="&#xe618;" 
d="M512 -212q-104 0 -199 40.5t-163.5 109t-109 163.5t-40.5 199t40.5 199t109 163.5t163.5 109t199 40.5t199 -40.5t163.5 -109t109 -163.5t40.5 -199t-40.5 -199t-109 -163.5t-163.5 -109t-199 -40.5zM512 777q-97 0 -185.5 -37.5t-152.5 -101.5t-101.5 -152.5
t-37.5 -185.5t37.5 -185.5t101.5 -152.5t152.5 -101.5t185.5 -37.5t185.5 37.5t152.5 101.5t101.5 152.5t37.5 185.5t-37.5 185.5t-101.5 152.5t-152.5 101.5t-185.5 37.5zM728 283h-432q-7 0 -12 5t-5 12t5 12t12 5h432q7 0 12 -5t5 -12t-5 -12t-12 -5z" />
    <glyph glyph-name="address" unicode="&#xe611;" 
d="M678 429q0 69 -48.5 117.5t-117.5 48.5t-117.5 -48.5t-48.5 -117.5t48.5 -117.5t117.5 -48.5t117.5 48.5t48.5 117.5zM383 428.5q0 53.5 37.5 91.5t91 38t91.5 -38t38 -91.5t-38 -91t-91.5 -37.5t-91 37.5t-37.5 91zM807 429q0 122 -86.5 208.5t-208.5 86.5t-208.5 -86.5
t-86.5 -208.5q0 -46 30.5 -115.5t73.5 -137.5t86.5 -128t74 -98t30.5 -37q12 14 32 39t70.5 94.5t89.5 131.5t71 133.5t32 117.5zM512 687q107 0 182.5 -75.5t75.5 -182.5q0 -40 -26.5 -102t-64.5 -122.5t-76 -115t-64.5 -88l-26.5 -33.5q-11 13 -28.5 35.5t-62 85
t-78.5 117.5t-61.5 119t-27.5 104q0 107 75.5 182.5t182.5 75.5zM642 31q-11 -16 -23 -32q60 -7 96 -20t36 -29q0 -23 -70 -39.5t-169 -16.5t-169.5 16.5t-70.5 39.5q0 16 36.5 29t96.5 20l-24 32q-66 -12 -106 -34t-40 -47q0 -39 81 -66t195.5 -27t195.5 27t81 66
q0 25 -39.5 47t-106.5 34z" />
    <glyph glyph-name="svg31" unicode="&#xe844;" 
d="M886 75q-16 22 -38 56q-21 32 -40 70q-18 37 -31 81q-13 40 -13 82q0 50 -14 92q-14 41 -37 74q-25 33 -57 56q-29 20 -68 33q9 18 9 38q0 37 -26.5 63.5t-64 26.5t-64 -26.5t-26.5 -63.5q0 -20 8 -38q-1 0 -3.5 -0.5t-3.5 -1.5q-33 -11 -65 -33q-32 -23 -55 -54
q-24 -33 -39 -74q-14 -42 -14 -93q0 -44 -13 -83q-13 -42 -31 -79q-17 -36 -38 -71q-22 -33 -37 -61q-21 -33 -5 -62q16 -28 46 -28h676q11 0 26 9q12 6 20 20q9 13 10 30q1 20 -12 37v0zM506 684q11 0 19 -8t8 -19.5t-8 -19t-19 -7.5t-19 7.5t-8 19t8 19.5t19 8v0zM185 42
q4 0 9 9t11 23t10 21q22 35 42 78q20 40 35 88t15 101q0 41 12 73q10 32 29 57q17 23 40 40q24 17 48 25q15 4 66 4q33 0 66 -2q28 -9 52 -25q24 -17 41 -41q18 -25 29 -57t11 -72q0 -52 15 -101q15 -48 35 -89q24 -51 43 -80q4 -6 11.5 -20.5t13 -23t9.5 -8.5h-643v0z
M348 -85h317v-63h-317v63v0zM348 -85z" />
    <glyph glyph-name="shouji" unicode="&#xe614;" 
d="M744 -151h-464q-25 0 -43.5 18.5t-18.5 44.5v776q0 26 18.5 44.5t43.5 18.5h464q25 0 43.5 -18.5t18.5 -44.5v-776q0 -26 -18.5 -44.5t-43.5 -18.5zM280 720q-13 0 -22 -9.5t-9 -22.5v-776q0 -13 9 -22.5t22 -9.5h464q13 0 22 9.5t9 22.5v776q0 13 -9 22.5t-22 9.5h-464z
M512 -83q-17 0 -29 12t-12 28.5t12 28.5t29 12t29 -12t12 -28.5t-12 -28.5t-29 -12zM512 -32q-10 0 -10 -10q0 -6 5 -8t10 0t5 8q0 10 -10 10zM732 28h-443q-6 0 -10.5 4.5t-4.5 10.5v622q0 6 4.5 10.5t10.5 4.5h443q6 0 10.5 -4.5t4.5 -10.5v-622q0 -6 -4.5 -10.5
t-10.5 -4.5zM305 59h412v590h-412v-590z" />
    <glyph glyph-name="weixinzhifu" unicode="&#xe687;" 
d="M393 180q-17 -9 -30.5 -10.5t-20.5 2.5t-11.5 11t-5.5 11t-1 5l-77 179q-19 55 4 50q9 -2 22 -12q47 -36 82 -57q16 -10 35 -11.5t30 1.5l11 3l499 231q-71 88 -180 139t-236 51q-103 0 -197 -35.5t-162 -95t-108.5 -142t-40.5 -173.5q0 -104 51.5 -195.5t141.5 -154.5
l-21 -122q-1 -1 -1.5 -3t-0.5 -8t2.5 -8t8 -4t16.5 4q29 14 123 77q91 -32 188 -32q103 0 197 35.5t162 95t108.5 142t40.5 173.5q0 105 -53 198q-524 -316 -576 -345z" />
    <glyph glyph-name="gongshangyinxing" unicode="&#xe67d;" 
d="M153 301l3 -37l3 -33l9 -37l12 -31l16 -33l18 -28l9 -15l12 -12l22 -28l27 -21l28 -21l30 -19l31 -15l33 -12l34 -9l18 -3l19 -4h18h18h37l33 7l37 9l31 12l33 15l28 19l15 9l12 12l28 21l21 28l22 27l18 28l15 33l12 31l10 37l3 15l3 18v18v19v36l-6 37l-10 34l-12 33
l-15 31l-18 30l-10 16l-12 12l-21 24l-28 25l-27 21l-28 18l-33 16l-31 12l-37 9l-15 3h-18l-18 3h-19l-36 -3l-37 -3l-34 -9l-33 -12l-31 -16l-30 -18l-16 -9l-12 -12l-27 -25l-22 -24l-21 -28l-18 -30l-16 -31l-12 -33l-9 -34l-3 -18v-19l-3 -18v-18v0zM64 301l3 46l4 24
l3 21l12 43l6 21l9 19l9 21l9 19l22 36l12 19l15 18l28 30l15 16l15 12l19 15l18 12l18 13l19 9l39 18l40 15l21 6l22 7l21 3l24 3l46 3l46 -3l22 -3l21 -3l43 -13l21 -6l21 -9l19 -9l18 -9l40 -22l15 -12l18 -15l31 -28l15 -15l15 -15l13 -18l12 -19l12 -18l9 -18l22 -40
l15 -40l3 -21l6 -22l3 -21l3 -24l3 -46l-3 -46l-3 -21l-3 -22l-9 -43l-9 -21l-6 -21l-10 -19l-12 -18l-21 -40l-12 -15l-13 -18l-30 -31l-15 -15l-16 -15l-18 -13l-15 -12l-19 -12l-21 -9l-37 -21l-42 -16l-22 -6l-21 -3l-21 -3l-22 -3l-46 -3l-46 3l-24 3l-21 3l-43 9
l-21 9l-19 7l-21 9l-18 12l-37 21l-18 12l-19 13l-30 30l-16 16l-12 15l-15 18l-12 15l-12 19l-10 21l-18 37l-15 42l-6 22l-6 21l-3 22l-4 21l-3 46v0zM764 270v-61v-73v-64h-71h-149v64h149v73h-79h-70v64v67v68h70h79v67h-149v64h149h71v-64v-67v-68h-71h-79v-67h150v-3
v0zM260 270v-61v-73v-64h70h150v64h-150v73h79h71v64v67v68h-71h-79v67h150v64h-150h-70v-64v-67v-68h70h79v-67h-149v-3v0z" />
    <glyph glyph-name="zhongguoyinxing" unicode="&#xe67e;" 
d="M511 747q-112 0 -210.5 -56t-159.5 -152t-68 -210q-7 -115 41.5 -218.5t139 -171.5t202.5 -82q111 -14 215.5 29t176.5 130.5t94 200.5q15 84 -0.5 170.5t-60.5 158.5q-44 69 -110.5 117.5t-145.5 69.5q-55 14 -114 14v0v0zM171 300q0 126 82 225.5t203 119.5v-120
q0 -3 1 -12t1 -15.5t-2 -11.5q-2 -2 -8.5 -3t-14 -1t-16 0.5t-10.5 0.5q-36 0 -65.5 -20.5t-37.5 -56.5q-3 -9 -3.5 -20t0.5 -27t1 -21v-119q0 -26 13 -49t35 -36.5t67 -13.5q2 0 10 1t13 0.5t10 -2t6.5 -6t1.5 -11.5t-1 -15.5t-1 -11.5v-39v-76q-121 19 -203 117t-82 223v0
v0zM412 217q-5 0 -7.5 4t-3 10.5t-0.5 12.5t0.5 13t0.5 9v59v31q0 2 -0.5 8.5t-0.5 11.5t2 7q4 5 14 6t26 0t17 -1h111q2 0 9 0.5t13 1t13 0t11.5 -3t5.5 -6.5q2 -8 2 -18t-1 -22t-1 -18v-79v-4v-5.5v-4.5t-0.5 -4t-2 -3t-3 -2.5t-3.5 -1.5t-5 -1h-44h-153v0v0zM564 -40v119
q0 3 -0.5 9.5t-0.5 11t1 9.5t4 8t9 3q2 1 35.5 0.5t35.5 3.5q35 9 53 39t18 69v56v60v14v16t-0.5 14t-2 15t-4 13.5t-6.5 13.5q-17 29 -44.5 39t-66.5 10q-1 0 -8.5 -0.5t-13 -0.5t-7.5 2t-2.5 6.5t0 10.5t0.5 7v137q122 -20 204 -119.5t82 -225.5q0 -125 -82 -223
t-204 -117v0v0zM564 -40z" />
    <glyph glyph-name="Secret" unicode="&#xe604;" 
d="M498.5 721q94.5 0 161 -66.5t66.5 -160.5v-70h-455v70q0 94 66.5 160.5t161 66.5zM499 774q-116 0 -198 -82.5t-82 -197.5v-123h560v123q0 115 -82.5 197.5t-197.5 82.5v0zM814 371v-385q0 -43 -31 -74t-74 -31h-420q-44 0 -74.5 31t-30.5 74v385h630zM866 424h-735v-438
q0 -66 46 -111.5t112 -45.5h420q66 0 111.5 45.5t45.5 111.5v438zM507.5 196q10.5 0 18.5 -8t8 -18v-105q0 -11 -8 -18.5t-18.5 -7.5t-18.5 7.5t-8 18.5v105q0 10 8 18t18.5 8z" />
    <glyph glyph-name="zhongzi" unicode="&#xe619;" 
d="M523 320q47 29 108.5 35.5t127.5 -12.5q92 -28 148 -94t52 -138q-2 -34 -75 -23q-36 5 -67.5 16.5t-52.5 22.5t-60 33q-90 53 -161 63q-24 3 -29 -11q-5 -11 15 -17q52 -18 117.5 -57t73.5 -43q57 -28 125 -37q10 -2 35.5 -3t35.5 -3q30 -6 11 -30q-42 -55 -120 -74
t-165 7q-75 23 -127.5 73t-67.5 110q-14 54 6.5 102.5t69.5 79.5v0zM457 313q-44 22 -98.5 24.5t-112.5 -16.5q-85 -29 -136 -92.5t-45 -131.5q3 -31 72 -19q47 8 80.5 24t86.5 49q59 37 102 52q7 62 51 110v0zM406 160q-23 -12 -59.5 -36t-56.5 -35q-52 -28 -116 -39
q-10 -1 -33.5 -3t-32.5 -4q-29 -7 -10 -29q40 -50 114.5 -65.5t155.5 11.5q59 20 104 58q-46 50 -61 111q-4 16 -5 31v0zM649 394q-13 70 -59 130q-56 71 -133 98.5t-139 -0.5q-28 -14 6 -74q24 -42 50 -68.5t74 -65.5q42 -33 64 -58q60 35 137 38v0zM452 353q-55 43 -67 54
q-43 39 -75 97q-5 8 -14.5 29.5t-14.5 30.5q-15 24 -30 0q-25 -42 -26 -96.5t23 -109.5q110 32 204 -5z" />
    <glyph glyph-name="wodetubiaosvg03" unicode="&#xe612;" horiz-adv-x="1106" 
d="M1001 812h-591q-36 0 -60.5 -25t-24.5 -60v-129l-258 -128q-3 0 -3 -3q-64 -46 -64 -129v-410q0 -8 7.5 -15.5t16 -7.5t16 7.5t7.5 15.5v410q0 56 41 88l6 6l266 134l3 3l3 3v3l3 3v3v3v6v140q0 15 11 26.5t27 11.5h591q24 0 41 -17t17 -41v-776q0 -8 7.5 -15.5t16 -7.5
t16 7.5t7.5 15.5v773q2 43 -28 74t-74 31zM187 236h164q9 0 16 7t7 16v164q0 9 -7 16t-16 7t-16 -7t-7 -16v-141h-141q-9 0 -16 -7t-7 -16t7 -16t16 -7zM796 86q-53 0 -93 -31.5t-51 -82.5l-5 -14h-185l-3 14q-11 51 -52 82.5t-94 31.5q-61 0 -105 -43.5t-44 -105t44 -105.5
t105 -44q50 0 90 31.5t53 79.5l3 12h188l3 -12q13 -48 53 -79.5t90 -31.5q61 0 105 44t44 105q0 62 -42.5 105.5t-103.5 43.5zM313 -165q-42 0 -72 30.5t-30 72t30 72t72 30.5t72 -30.5t30 -72.5t-29.5 -72t-72.5 -30zM795.5 -165q-41.5 0 -72 30.5t-30.5 72t30.5 72
t72 30.5t72 -30.5t30.5 -72t-30.5 -72t-72 -30.5z" />
    <glyph glyph-name="kuaicai" unicode="&#xe602;" 
d="M354 60q-10 -2 -32.5 -7.5t-39.5 -8.5t-32 -1q-23 2 -47 13.5t-37 27.5q-25 32 -22 68.5t35 64.5q57 51 115 75q184 76 416 -13q-188 -66 -358 -220zM799 626q144 -28 159 -138q12 -99 -63 -134q-10 73 -55.5 103t-100.5 8q-7 8 -22.5 27.5t-27.5 33.5t-24 27
q-32 32 -58 37q-42 7 -64 27.5t-29 63.5q-7 41 10 66t53 14q18 -5 40 -10t36.5 -7.5t40.5 -6.5t38 -6q35 -6 52 -35t15 -70zM475 585q98 18 178 -52q-27 -2 -51.5 -13.5t-38.5 -23t-37 -33.5t-33 -31q-2 -1 -8 -6.5t-8.5 -7t-8.5 -6t-9 -5t-8.5 -2.5t-9 -0.5t-9 4t-10 8
t-9.5 13.5q-4 6 -27 3q-34 -4 -54 13.5t-19 51.5q0 25 -15 41q-55 61 -16 128q20 36 57 52.5t78 7.5q36 -8 62.5 -36t25.5 -60q0 -7 -5 -14.5t-13.5 -17.5t-11.5 -14zM565 198q93 38 186 75q2 5 4 11q-17 7 -142 53q109 84 119 93q16 12 28 18t29 8t32 -9q60 -32 53 -85
q-3 -30 5 -54.5t27 -58.5q24 -43 20 -87q-3 -32 -22 -39t-47 9q-18 10 -45 12q-18 2 -44 9t-44 12t-45 6t-47 -8q-8 -3 -18.5 0t-25.5 10t-22 10q-1 3 -1 8.5v6.5zM576 487q-16 -103 -105 -129q-19 -6 -70 -18t-78 -22q-77 -28 -128 -64q-13 -10 -25 -23.5t-27.5 -35
t-24.5 -32.5q-41 -1 -50.5 24t11.5 63q5 9 12.5 17.5t13.5 15t18 15.5t17.5 12.5t19.5 13t18 12.5q20 14 43.5 27.5t57 32t50.5 28.5q6 -1 27 -10t40 -15t37 -8q23 -4 66 27q12 9 24.5 20t28.5 26.5t24 22.5zM592 88q-19 -19 -41 -19t-38.5 10.5t-39 17t-40.5 0.5
q-1 1 -2.5 5t-2.5 5q85 56 100 65q6 2 9.5 1t11.5 -4t11 -4q9 -2 27.5 -9.5t32 -10.5t23.5 0q21 8 47 6t44.5 -7.5t44 -11.5t44.5 -6q25 -1 30.5 -16.5t-13.5 -33.5q-30 -28 -60 -29q-63 -3 -159 7q-4 0 -8.5 5t-10.5 14.5t-10 14.5zM523 349q8 12 26 43.5t32 52.5t28 40
q8 10 29.5 14t34.5 -2q22 -10 25.5 -32t-11.5 -43q-51 -77 -164 -73zM352 59q79 31 80 32q-40 -45 -98 -68.5t-107 -17.5t-63 42q38 -12 66.5 -16t62 2.5t61.5 26.5l-2 -1v0zM79 153q76 -32 62 -112q-61 110 -62 112z" />
    <glyph glyph-name="guangda01" unicode="&#xe67f;" horiz-adv-x="1902" 
d="M0 725h425q9 0 23 -0.5t40 -6t33 -15.5h-79v-25l121 -1q20 -14 20 -24l-141 -2v-22h156q2 -1 5 -3.5t7 -9.5t2 -16h-486v-26l493 2q3 -20 3 -26h-496v-26l498 2q3 -15 -5 -26l-493 -4v-25l486 3q0 -19 -12 -25l-474 -3v-23l458 3q-1 -24 -18 -29l-440 -1v-24l404 3
q0 -2 -1 -4t-6 -7t-12 -8.5t-21 -6.5t-31 -2l-76 2v-23l123 -1q5 0 14 -0.5t25 -6t20 -14.5l-182 -5v-23h214q19 -15 19 -24l-490 -3v-27l501 4q20 -13 20 -27l-521 -3v-23h528q1 0 1.5 -2t2 -7.5t-0.5 -11.5l-531 -4v-23h531q5 -14 0 -24l-531 -3v-24h527q4 -15 -8 -27
h-519v-25l508 2q-1 -24 -12 -26h-180v-26l156 2q-11 -24 -21 -27l-135 -2v-26l91 2q-1 -1 -2.5 -3t-10.5 -6.5t-22 -8t-39 -5.5t-59 -1l-400 1v827zM692 187q0 2 -0.5 6.5t0.5 16.5t4.5 23t11.5 25.5t19.5 26t32 21.5t46.5 14q4 1 12.5 2.5t33.5 3.5t47.5 1.5t50 -6t48 -16
t35 -32t15.5 -51.5l4 -272l15 -47l-121 -3l-7 42q-2 -1 -4 -3.5t-10.5 -8.5t-17.5 -11t-23.5 -11t-29.5 -9t-34.5 -2.5t-39.5 4.5q-5 1 -12 2t-25 8.5t-32 19.5t-25.5 37t-11.5 57v8.5t3 20.5t9.5 27.5t21 26.5t34.5 22q118 33 154 33q4 0 9 1.5t15 7t14 12.5t-1 20t-25 28
q-4 1 -10.5 2.5t-24 1.5t-31 -3t-25 -14.5t-12.5 -29.5l-113 -2v0zM1089 314h115l-2 -44q7 8 19 18.5t42 27t51 13.5q3 1 7.5 1.5t17.5 0t25.5 -3t28.5 -10.5t28.5 -20.5t23.5 -35t16 -51.5l3 -309h-113l-2 279q-1 3 -3.5 8t-12.5 16t-22 17t-32.5 4t-42.5 -17
q-2 0 -4.5 -1.5t-8.5 -9t-10 -18t-6.5 -31.5t-1.5 -47l2 -200l-115 2l-3 411v0zM1505 482l106 -2l6 -314l129 168h131l-119 -165l144 -263l-134 -5l-92 170l-56 -76l2 -92h-114l-3 579v0zM937 99q-2 -6 -33.5 -17.5t-60.5 -19.5l-30 -8q-24 -9 -24 -47q7 -15 19.5 -22
t24.5 -6.5t26 5t19 7t8 4.5v0q17 3 29.5 16.5t17 23.5t4.5 11v53z" />
    <glyph glyph-name="yinxingqia" unicode="&#xe613;" 
d="M751 273h-51q-6 0 -10 -4.5t-4 -11.5t4 -12t10 -5h51q7 0 11 5t4 12t-4 11.5t-11 4.5zM766 574h-481q-33 0 -57 -26.5t-24 -64.5v-332q0 -38 24 -64.5t57 -26.5h481q34 0 57.5 26.5t23.5 64.5v332q0 38 -23.5 64.5t-57.5 26.5zM817 147q0 -23 -14.5 -39.5t-34.5 -16.5
h-487q-20 0 -34.5 16.5t-14.5 39.5v258h585v-258zM817 438h-585v49q0 23 14.5 39.5t34.5 16.5h487q20 0 34.5 -16.5t14.5 -39.5v-49zM538 349h-240q-6 0 -10.5 -4.5t-4.5 -11.5t4.5 -11.5t10.5 -4.5h240q6 0 10 4.5t4 11.5t-4 11.5t-10 4.5zM751 214h-51q-6 0 -10 -4.5
t-4 -11.5t4 -12t10 -5h51q7 0 11 5t4 12t-4 11.5t-11 4.5z" />
    <glyph glyph-name="zhaoshangyinxing" unicode="&#xe680;" 
d="M918 140q-38 -89 -100 -150q-77 -76 -178 -106q-116 -35 -234 -5q-131 33 -220 134q-92 105 -106 248q0 1 -3 19v34q16 91 17 95q26 101 94.5 178t164 114.5t199.5 27.5q244 -25 357 -252q5 -10 14 -34q5 -14 -11 -14q-129 1 -150 1q-4 0 -8.5 4t-6.5 8q-9 21 -74 170
q-1 4 -33 76q-8 -11 -8 -12q-16 -36 -53 -122t-57 -133q0 -1 -13 -19q-24 57 -64.5 154t-55.5 134q-2 -1 -5 -2q-38 -91 -40 -96q-102 -249 -159 -386q-23 -55 -27 -68q-4 -9 2 -18q45 -70 77 -117q8 -11 22 -11q78 -1 248 -1h247q31 0 46 24q18 30 66 97q9 13 3 27
q-6 11 -3.5 14.5t14.5 3.5h13.5h13.5q19 1 11 -17zM777 412l-17 -3q3 -11 8 -16t15 -5h134q1 0 5 -0.5t5.5 0t4 1t3.5 3t1 6.5q-1 15 -19 14h-70h-70zM598 430q-13 -21 -14 -22q-15 -37 -43 -105t-39 -93q-1 -4 -28 -65h-2.5t-1.5 1q-103 246 -120 289h-3h-3q-9 -19 -10 -20
q-36 -90 -107 -266q-6 -15 -4 -18.5t19 -3.5q205 1 465 1q12 0 14.5 3.5t-2.5 14.5q-85 207 -107 261q-1 1 -14 23zM797 369h-17q0 -25 21 -25q7 1 62.5 0.5t62.5 0.5q4 0 10 3.5t7 6.5q1 8 -3.5 11t-14.5 3h-128zM941 327q-91 1 -136 0q-2 0 -5 -5.5t-2 -6.5q13 -11 19 -11
q37 -1 114 -1q1 0 16 4v17zM830 283l-15 -8q1 -2 4 -5.5t5 -6t5 -3.5q2 -1 20 -1q15 1 98 4v17q-17 3 -18 3q-60 1 -99 0zM920.5 200.5q-3.5 0.5 -7.5 0.5h-11h-12h-6.5h-5.5h-13q-1 0 -17 -7q2 -2 5 -7t5 -7.5t5 -2.5q25 -3 59 0q7 1 11 14q0 2 -4.5 5.5t-8 4zM927 241
q-4 1 -40 1v-1h-38q-5 0 -10.5 -3t-5.5 -5q-1 -17 17 -17q72 1 78 1q2 0 4 2t5 5.5t5 5.5q-2 1 -5 4l-5 5t-5 2z" />
    <glyph glyph-name="guanbi" unicode="&#xe66e;" horiz-adv-x="1026" 
d="M1025 298q-7 -145 -73.5 -259.5t-180.5 -180.5t-259 -70q-103 -2 -199 39t-165.5 111t-110 167t-37.5 199q5 144 70.5 258.5t181.5 180.5t263 69q102 2 196.5 -39t163 -111t110 -165.5t40.5 -198.5zM512 -150q87 -5 171 30.5t145 97.5t98.5 146.5t38.5 174.5
q0 88 -37 171.5t-98 145.5t-144 99.5t-171 37.5q-88 1 -172.5 -36t-146.5 -98.5t-99.5 -146t-37.5 -173.5q0 -88 37.5 -173t99 -147.5t145 -98t171.5 -30.5zM753 515q0 -5 -2 -9t-5.5 -8.5t-5.5 -7t-7.5 -7.5t-6.5 -6q-113 -114 -144 -144q-18 -18 -18 -33t18 -33
q46 -44 152 -152q8 -8 11 -11.5t7.5 -11t2.5 -14t-8.5 -13t-13.5 -8.5t-14.5 3t-10.5 7.5t-11 10.5q-108 106 -152 152q-18 18 -33 18t-33 -19q-45 -46 -152 -151q-8 -8 -11.5 -11t-11 -7.5t-14 -2.5t-13 8.5t-8.5 13.5t3 14.5t7.5 10.5t10.5 12q108 109 152 151
q19 18 18.5 33t-18.5 33q-46 44 -152 152q-8 8 -11 11.5t-7.5 11t-2.5 14t8.5 13t13.5 8.5t14.5 -3t10.5 -7.5t11 -10.5q108 -106 152 -152q18 -18 33.5 -18t33.5 19q35 36 155 155q23 22 42 12q13 -7 10 -23z" />
    <glyph glyph-name="jiansheyinxing" unicode="&#xe634;" 
d="M614 664l246 -243l86 83l-161 166q-23 20 -47.5 35.5t-36.5 20.5l-13 5q-38 12 -73.5 14.5t-59.5 -2t-42.5 -10.5t-27.5 -12l-9 -6q28 0 52 -5.5t39 -13t26.5 -14.5t15.5 -12l5 -6v0v0zM738 275q-13 2 -22 -1t-11 -7l-2 -4l-190 -186q-7 -9 -13.5 -7t-10.5 6.5t-4 5.5
l-183 179q-7 3 -7.5 9.5t1.5 11.5l3 5l187 187q6 8 12.5 7.5t11.5 -5.5l5 -5l185 -177q7 -10 14 -9.5t11 5.5l5 5l101 96l-281 276q-33 22 -73 27.5t-73 -3t-61 -20t-44 -21.5l-16 -11q-151 -86 -198 -260q-11 -44 -12 -74q-1 -67 13 -126t35.5 -99.5t51 -75t53.5 -54
t51 -35t36 -19.5t15 -6v0q194 -85 379 15q53 29 83 58q42 34 72 78.5t43 84t20 74t7 55.5v20h-194v0v0zM738 275z" />
    <glyph glyph-name="pinganyinxing" unicode="&#xe681;" 
d="M748 142l6 3l2 1l3 2l2 2l2 3l1 -1l3 -3l2 -2l3 -2l5 -3h-29v0v0v0zM774 154l2 -3l3 1v0h1v1l2 2l2 2l1 3l1 2v1v2v1v1h-1l-1 1h-2h-1h-25l1 4l-2 2h-1h-1v0h-1v0l-1 -1v0l-1 -2l-1 -2l-2 -2l-2 -3l-2 -2v2l-2 2l-10 4l-2 1v0h-1h-1v-1h-1v-1h-1v-1v0v-1v-1v0l1 -1v0
l1 -1h1h1q1 -1 3 -1l3 -2q3 0 4 -1v0h1h2v-1v-1l1 -1l-3 -2l-3 -2l-4 -2l-3 -1q-2 -1 -5 -3v0h-1v-1v-1v0v-1v-1h1v-1h1v0l1 -1h1v1h1l4 2q3 1 5 2l2 1v-2v-1l1 -1h-5h-1l-1 -1h-1v-1l-1 -1l-1 -1v-1v-1v-16v-1v-1h1l2 -3h-6h-1l-1 -1v0l-1 -1v0l-1 -1v0v-1l1 -1v0v-1h1
l1 -1v0h1h1l6 1l6 1l5 2l4 2l4 4l3 4l1 4l1 6v0v1v2h14h1v0v-1v0v-13v-2l-3 1q-1 0 -2.5 1t-3.5 1v1h-3h-1v0h-1h-1l-2 -1v-2v-1l1 -1v0h1v-1h1l3 -1l2 -1l3 -1l3 -1l3 -1l2 -2l3 -1l3 -2h2l3 1v3l-2 2l-7 4l1 1h1v1l1 1v0v1v15v1v1l-2 3l6 -1h2l2 2v1v1v0l-1 1v0l-1 1v0
l-4 1l-4 1l-3 2v0l-4 3l-2 2l-2 2l-2 2h1v2h11q0 -1 -0.5 -2t-1.5 -1l-1 -2l-1 -1v-1v0v-1v0v0v0zM776 151v0v0v0v0v0v0zM746 152l-1 3l1 1q1 0 2 1l1.5 1.5t2.5 3.5h8l-1 -2l-1 -2l-1 -2l-2 -2l-3 -2l-2 -1l-4 -2l-3 -1l3 4v0v0v0zM756 121l1 1l1 2v-2l-2 -1v0v0v0z
M753 135v-1l-1 -1v-4l-2 -4l-2 -3l-2 -2l-4 -2l-7 -3l2 3l1 1v0v1v15v0v0v0h1h14v0v0v0zM701 145h-28l3 2l1 2l2 2v2l1 2l1 2v2v5h13v-11l1 -2v-1v-1h1v-1v0l1 -1l4 -2v0v0v0zM692 130l-1 -2l-3 -2l-2 1l-1 1l-2 2l-1 2l-3 3l-2 4h21l-1 -3l-1 -2l-1 -1l-1 -2l-2 -1v0v0v0z
M667 144l-1 -1q-1 -1 -2 -1.5t-2 -0.5v11h8v4v1v0l-1 1v0h-1v0h-5v11l-1 1v0v1v0l-1 1v0h-1h-1h-1h-1v-1v0l-1 -1v0v-1v-11h-5h-1v0h-1v-1h-1v-1v0v-2v0v-1h1v-1h1v0h1h5v-15l-2 -1l-3 -1l-2 -2h-1v-1v0v-1v0v-1v0v-1l1 -1v0v0l1 -1h1v0h1l2 2l2 1v-14l-3 1h-3l-1 -3v0v-1
v-1v0l1 -1v-1h1h1l2 -1h2h2h2l1 1l2 3l1 -2v-1h1v-1h1h1v0h1l3 1l3 1l2 1h3l2 1l2 2l4 2l2 -2l2 -1l3 -1l3 -1l2 -1l3 -1l4 -1h3h1h1v0h1v1h1v1v1v1v0v1h-1v1h-1v1h-1h-2l-3 1h-2l-2 1l-2 1l-2 1l-3 1l2 3l2 2l1 1l2 3l1 2l1 2l2 2v2l1 2v0l-1 1v1v1v0l-1 1v0l-4 2h8h1l1 1
v0h1v1v0l1 1v1v0l-1 1v1v0h-1v1h-1h-1h-6h-1v12v1v1l-1 1v1l-1 1h-1h-1h-1h-16h-1h-1h-1l-1 -1l-1 -1v-1l-1 -1v-1v-5v-1v-2l-1 -1v-2l-3 -3v1l-3 -2l-1 -1v-1v0v-1v-1v0v-1l1 -1v0v0v0zM670 152v0v0v0v0v0v0zM662 114v19q5 3 6 4h1l3 3l-1 -4v-1v0v-1l1 -1l2 -3l3 -4l2 -2
l2 -2l-4 -2l-2 -1l-4 -1l-5 -2h-1v0l-3 -2v0v0v0zM499 150v-5l-1 -1v0v0v0h-19v6h20v0v0v0zM479 162v1v0v0v0h1h18v0v0l1 -1v0v-5h-20v5v0v0v0zM490 121l-3 2l-3 -2l-1 -2q-1 0 -1.5 -0.5l-1.5 -1.5l-1 -1v21h4l1 -4l2 -4l2 -4l2 -4v0v0v0zM472 135v-13l-4 1l-2 -1l-3 -3
l-2 -2v17h8v0h1l2 1v0v0v0zM472 149v-10l-2 1h-1v0h-8v7h6l1 1h1v0h1v1l1 2l-1 2v0l-1 1v0h-1v0h-12l2 6h11h2l1 1v-8l-1 -2l1 -2v0v0v0zM502 137l-6 -6v0l-2 -2l-2 3q0 1 -1 3l-1 2h12v0v0v0zM506 134v0v1v0l-1 1l-3 1l2 2h1v1v1v1v23v1v1v0l-1 1l-1 1h-1l-1 1h-1h-23h-1
l-1 -1h-1l-1 -1v-1l-1 -2l-2 1v0h-1h-9q0 1 1 2v1v0v1v1v0l-1 1v0l-1 1h-1h-1v0h-1h-1v-1h-1v-1v-1l-1 -3l-1 -2l-1 -3l-1 -3l-1 -2l-1 -2l-2 -3l-1 -2l-1 -1v0v-1v-1v0v-1l1 -1h1l2 -1l3 2l1 2h2v-7h-6h-1v-1h-1v0l-1 -1v0v-1v-1v0v-1v-1h1v0l1 -1v0h1h6v-21v-1v-1l1 -1v0
v-1h1l1 -1v0h1h1v0l1 1h1l3 2l2 2q3 2 4 4l2 2v-5v-2l1 -1v-1l1 -1l1 -1h2h1l2 1l2 1l2 2q1 0 2.5 1.5l1.5 1.5l2 2v0v1l1 1v3l2 -3l4 -3l4 -3l4 -2l3 -1l2 2v3l-2 2l-3 2l-3 2l-3 2l-1 1q4 4 4 5q1 0 1.5 1t1.5 1v1h1v1v0v1v0v0v0zM547 169h-1v0l-1 -1h-1v0v-1l-1 -1v-1v0
l1 -1v-1v0l1 -1h1v0h1h32h1v0h1l1 1v0l1 1v1v0v1v1l-1 1v0h-1l-1 1v0h-1h-32v0v0v0zM532 170l-2 -4l-2 -3l-3 -4l-3 -3v-1v0l-1 -1v0v-1l1 -1v0l1 -1l2 -1l3 1l2 4l3 3l2 4l3 5l1 2l-2 3h-3l-2 -2v0v0v0zM527 133l2 2v-24v0v-1v-1h1v-1h1h1v0h1h1v0l1 1v0l1 1v1v0v34l2 3
q1 2 1 5l-2 2h-3l-2 -2l-1 -2l-1 -2l-1 -2l-1 -2l-3 -4l-3 -3l-1 -3l1 -3l2 -1l3 2v0v0v0zM541 151v-2v0v-1l1 -1v0h1h1v0h25v-27l-1 -1v-1v0v-1h-1v0v-1h-1h-1h-2l-3 1l-6 1h-1h-1v0h-1l-1 -2v-3l2 -2l3 -1h3l3 -1h2h2h2h2h1l2 1h1l1 1l1 2v1l1 2v1v2v28h7h1v0h1v0l1 1v1v0
v1v1v0l-1 1v1h-1v0h-1v1h-39v-1h-1h-1v0l-1 -1v-1v0v0v0v0zM328 162h6l-3 -12v-2v-1q0 -1 0.5 -2t0.5 -2l2 -4l1 -1v-3l1 -2v-1v-1h-1v-1v-1h-1v0l-3 1h-1v0l-2 -1v33v0v0v0zM373 150v1v2l4 -2h3l2 2l1 2l-3 2l-2 2l-3 1l-2 1l-2 2l-2 1l-2 2l-2 2l-3 3l-1 1h-1h-1h-1l-1 -1
h-1q-1 -2 -4 -5v0l-2 -2l-2 -2l-2 -1l-2 -2l-5 -4l1 6v0l1 3v1v2h-1v1v0h-1v1h-1h-2h-10h-1h-1l-1 -1h-1v-1l-1 -1v-1v-1v-53v-1v0l1 -1v0l1 -1v0h1h1v0h1h1v1h1v1v0v1v13l2 -1h0.5h0.5q2 -1 3 0v0h1h1h1h1l1 1h1v1l1 1v1h1v1v1v2v1v1v3l-1 3l-1 3l-2 4v2v3l2 -1v-1h1h1h1v1
h1l2 2l1 -2v-0.5v-0.5v-1h1v0l1 -1h1h7l-2 -1l-1 -1v-1v0v-1v-1q1 -4 1 -6q1 -4 2 -7v-5h1v-1v-1h1v-1h1h1v0h1l2 1v-2v-1v-1l1 -1h-13l3 2v0v1l1 1v1q-1 1 -1 2q0 2 -1 3v2l-1 3l-1 2l-2 5l-2 3v0v1h-1v1h-1h-1h-1v0l-1 -1v0l-1 -1v0v-1q0 -1 2 -6l2 -5l2 -5l1 -4v-1l1 -1
v0l2 -2h-9h-1l-1 -1v0v0l-1 -1v0v-1v0v-1v-1v0l1 -1v0h1v-1h1h35h1l1 1v0h1v1v0v1v1v0v1v0v1h-1v1h-1h-1h-9l0.5 1l0.5 1v0l2 6l1 3l1 3l1 3v3l1 3v3v1v0v1v1h-1v1h-1v0h-2l-2 -1v-1l-1 -5l-1 -6l-1 -3l-2 -9q0 1 -0.5 4t-0.5 4t-0.5 2.5t-0.5 2.5l-1 5l-1 4v1l-2 3h13l1 1
v1v0v0v0zM372 147h-1l1 1v0v-1v0v0v0zM350 154l3 3l1 1l1 2l2 2l1 1l1 1l2 -2l1 -1l2 -2l2 -2q3 -2 4 -3h-20v0v0v0zM265 154v9v1v0h1v0v0h29v0v0l1 -1v-9l-1 -1h-29v0l-1 1v0v0v0v0v0zM254 136l3 -1v0h1h17l-3 -3l-2 -2l-2 -2l-3 -2l-3 -2l-3 -2l-5 -3v17v0v0v0zM258 167
v-15l1 -1v-1v-1l1 -1l1 -1h1v0h1h14v-6h-19h-1h-1l-2 -2v16l0.5 1.5t1.5 2.5l2 8v0v0v0zM288 132l-2 3h18h1v0h1v1h1v1v0v1v0v1v0l-1 1v0l-1 1v0h-1h-21v5h14l1 1h1h1l1 1l1 1v1v1v0v15v1v1v0l-1 1l-1 1h-1l-1 1h-1h-33h-1l-1 -1h-1l-1 -1l-1 -1l-1 2l-1 1l-2 1h-1h-1v0
l-1 -1v0l-1 -1v-1l-1 -1v-3l-1 -3l-1 -3l-1 -3l-1 -3l-2 -2l-1 -2l-2 -3h-1v-1v-1v0v-1v-1h1v-1l3 -1l3 2v-31v0l1 -1v-1v0l1 -1v0h1h1h1v0h1v1h1v1v1v0v3l3 -1v0h1v0h1l3 2l3 2l3 2l3 2l2 2l4 4v-16v-1v-1v0l1 -1v0h1h1v-1l1 1v0h1h1v1v0v1v1v16l3 -2l3 -3l2 -2l3 -2l3 -2
l3 -2l3 -2h3l2 2v3l-1 2l-4 2l-4 2l-3 2l-3 2l-2 2l-3 3v0v0v0zM622 140l-1 1v1v1l-1 1l-1 1h-1h-1l-1 1l-1 -1h-1h-1v-1l-1 -1l-1 -1v-1v-1v-1v-1l1 -1h1v-1l1 -1h1h1h1h1l1 1l1 1h1v1l1 1v1v0v0v0zM419 140v1v1l-1 1v1l-1 1h-1h-1l-1 1l-1 -1h-1h-1l-1 -1v-1l-1 -1v-1v-1
v-1v-1l1 -1v0l1 -1l1 -1h1h1h1h1l1 1l1 1v0l1 1v1v1v0v0v0zM933 241q0 -15 -10.5 -25.5t-24.5 -10.5h-772q-15 0 -25.5 10.5t-10.5 25.5v242q0 14 10.5 24.5t25.5 10.5h772q15 0 25 -10.5t10 -24.5v-242v0v0v0zM477 352h-17v-6h-16v14h28v14h-28v10h33v15h-89v-15h34v-10
h-29v-14h29v-14h-34v-15h89v21v0v0v0zM315 413h-49v14q0 3 -3 3h-21q-2 0 -2 -3v-14h-50q-7 0 -12 -5t-5 -12v-54q0 -7 5 -12t12 -5h50v-23q0 -3 2 -3h21q3 0 3 3v23h49q7 0 12 5t5 12v54q0 7 -5 12t-12 5v0v0v0zM240 344h-43v50h43v-50v0v0v0zM309 344h-43v50h43v-50v0v0v0
zM701 394h14q2 0 2 3v8h117v-8q0 -3 3 -3h13q3 0 3 3v10q0 6 -4.5 10t-10.5 4h-50v7q0 3 -3 3h-19q-3 0 -3 -3v-7h-50q-6 0 -10.5 -4t-4.5 -10v-10q0 -3 3 -3v0v0v0zM650 396q-4 0 -5 -3l-19 -37q-1 -2 2 -2h19q3 0 5 2l19 37q1 3 -2 3h-19v0v0v0zM494 426h-123
q-7 0 -11.5 -5t-4.5 -12v-90q0 -7 5 -11.5t11 -4.5h123q7 0 12 4.5t5 11.5v90q0 7 -5 12t-12 5v0v0v0zM489 320h-112v90h112v-90v0v0v0zM851 382h-24v10q0 3 -3 3h-17q-3 0 -3 -3v-10h-57v10q0 3 -3 3h-17q-3 0 -3 -3v-10h-24q-3 0 -3 -3v-12q0 -3 3 -3h25v-8q0 -15 15 -23
q9 -4 15 -7q-15 -6 -28 -6h-23q-3 0 -3 -2v-12q0 -3 3 -3h23q15 0 29 5l20 8q15 -6 19 -8q14 -5 30 -5h22q3 0 3 3v12q0 2 -3 2h-23q-13 0 -27 6q3 2 8 4t7 3q15 8 15 23v8h24q3 0 3 3v12q0 3 -3 3v0v0v0zM804 358q0 -8 -7 -12q-9 -4 -21 -10q-15 7 -22 10q-7 4 -7 12v6h57
v-6v0v0v0zM565 354h19q3 0 2 2l-20 37q-1 3 -4 3h-19q-3 0 -2 -3l19 -37q1 -2 5 -2v0v0v0zM680 344h-62v62h57q3 0 3 3v12q0 2 -3 2h-139q-2 0 -2 -2v-12q0 -3 2 -3h57v-62h-62q-3 0 -3 -3v-12q0 -3 3 -3h62v-24q0 -3 3 -3h19q3 0 3 3v24h62q3 0 3 3v12q0 3 -3 3v0v0v0z
M960 489l-1 6l-1 6l-2 6l-3 6l-3 5l-4 5l-4 4l-4 4l-5 4l-5 3l-6 3l-6 2l-6 1l-6 1h-6h-772h-7l-6 -1l-6 -1l-6 -2l-5 -3l-5 -3l-5 -4l-5 -4l-4 -4l-3 -5l-4 -5l-2 -6l-2 -6l-2 -6l-1 -6v-6v-355v-6l1 -7l2 -6l2 -5l2 -6l4 -5l3 -5l4 -4l5 -4l5 -4l5 -3l5 -3l6 -2l6 -2h6
l7 -1h772l6 1h6l6 2l6 2l6 3l5 3l5 4l4 4l4 4l4 5l3 5l3 6l2 5l1 6l1 7l1 6v355l-1 6v0v0zM951 128q0 -22 -15.5 -37.5t-37.5 -15.5h-772q-22 0 -38 15.5t-16 37.5v355q0 22 16 37.5t38 15.5h772q22 0 37.5 -15.5t15.5 -37.5v-355v0v0zM951 128z" />
    <glyph glyph-name="p-check" unicode="&#xe69c;" 
d="M83 -1q-26 0 -44 18t-18 44v659q0 26 18 44.5t44 18.5h589q26 0 44.5 -18.5t18.5 -44.5v-157v-8q-1 -11 -9 -19t-19 -8t-19 8t-8 19v8v0v110q0 33 -11.5 44t-43.5 11h-495q-32 0 -43.5 -11t-11.5 -44v-565q0 -32 11.5 -43.5t43.5 -11.5h495q32 0 43.5 11.5t11.5 43.5v46
v1q0 12 8 20t19 8t19 -8t9 -20v-1v-93q0 -26 -18.5 -44t-44.5 -18h-589v0zM704 257q-11 0 -19 8v0l-165 165q-8 8 -8 19.5t8 19t19.5 7.5t19.5 -8l145 -145l264 264q8 8 19 8t19 -8t8 -19.5t-8 -19.5l-283 -283v0q-8 -8 -19 -8v0zM189 281q-11 0 -19 8t-8 19.5t8 19.5t19 8
h212q11 0 19 -8t8 -19.5t-8 -19.5t-19 -8h-212zM189 446q-11 0 -19 8t-8 19t8 19.5t19 8.5h212q11 0 19 -8.5t8 -19.5t-8 -19t-19 -8h-212z" />
    <glyph glyph-name="nongyeyinxing-copy" unicode="&#xe682;" 
d="M481 569h49q26 0 30 8q3 5 3 11v26v33v137q0 65 -2 65h-38h-39h-18q-2 0 -2 -33v-136q0 -10 -1 -29.5t-1 -35.5t2 -30t17 -16v0zM622 839v-142q0 -13 1.5 -41.5t1 -51t-3.5 -41.5q-1 -12 -19.5 -15t-37 0t-29.5 0q-7 -3 -10 -11t-3 -15.5t1 -19t1 -14.5v-91q2 6 8.5 9
t11 3.5t14 0t11.5 -0.5q8 0 24.5 -1.5t30 -1.5t23.5 3q15 4 15 20q-2 1 -2 9t1 17.5t1 10.5v56v203q93 -44 149 -134t56 -195q0 -133 -88 -236t-218 -120v108v54v25v13q1 3 2 5l1 1q1 0 3 1q3 1 31 -1t49 2t15 19q-2 3 -2 11.5t1 19.5t1 14v94q0 -7 -2.5 -11.5t-8.5 -6
t-10 -2t-13 0t-10 0.5q-8 0 -24 0.5t-28.5 0.5t-23.5 -1q-7 0 -11.5 -3t-6 -10t-1.5 -11.5t0.5 -13.5t0.5 -11v-91q-14 0 -16 1q-4 1 -4.5 1.5t-0.5 7.5v25v47q0 3 1 12.5t0.5 17t-2.5 13.5q-1 6 -5 9.5t-11 5t-12.5 1.5t-13.5 -0.5t-10 -0.5q-8 0 -23 -1t-28 -1t-23 2
q-13 4 -11 18v-107q0 -4 -0.5 -11.5t-0.5 -13.5t1 -11q1 -6 4.5 -9.5t9.5 -5t10.5 -1.5t12 0.5t9.5 0.5h31h15q3 0 4.5 -1t2 -3t0.5 -4v-5v-5v-189q-130 17 -218 120t-88 236q0 105 57 195t150 134v-231q0 -11 -0.5 -32.5t-0.5 -33.5q3 -17 19 -19h58q4 0 15.5 0.5t19 0.5
t16 -3t11.5 -10v104q0 2 0.5 10.5t0 11.5l-1.5 9t-3.5 8.5t-7 5t-11.5 3.5h-46q-11 0 -17.5 2t-9 9t-2.5 12v19v248q-102 -26 -182 -96.5t-121.5 -169.5t-33.5 -206q6 -95 51 -179t113.5 -141t158.5 -84.5t182 -14.5q113 15 203.5 84t139.5 173.5t42 219.5q-8 146 -102 262
t-234 152v0z" />
    <glyph glyph-name="pufayinxing-copy" unicode="&#xe683;" 
d="M416 520q-24 47 -63 76.5t-81 35t-82 -4t-72 -38.5t-45 -70q-7 -46 -12 -93v-289l137 -128v353l8 35q33 96 136 118q34 7 74 5v0v0zM796 524q-18 37 -52 62.5t-72.5 34.5t-79 3t-73 -26t-52.5 -59t-19 -90q-2 -47 -15.5 -83t-34 -56.5t-45 -34.5t-49 -18.5t-44 -6
t-32.5 -0.5t-12 1q9 -29 25.5 -50.5t35 -33.5t41 -19.5t40 -9.5t35.5 -2t24.5 1t9.5 2v0q32 4 57.5 18.5t41 33t26.5 43.5t16 44t8 41t3 28.5v11.5q5 33 19.5 60t33 43.5t42 29t43.5 18.5t40 9.5t28 4t11 0.5v0v0zM822 764v-352q0 -4 -1 -10t-6.5 -23t-14 -33t-25.5 -34.5
t-39 -31.5t-56.5 -20.5t-75.5 -5.5q24 -48 62.5 -77t80 -34.5t81 4.5t71 39t44.5 70q14 33 16 91v289zM822 764z" />
    <glyph glyph-name="kefu1" unicode="&#xe713;" horiz-adv-x="1026" 
d="M226 170q123 -92 292 -92q77 0 155.5 27.5t132.5 72.5q69 -37 119 -112t51 -153h-923q9 87 60 155t113 102v0zM800 225q-58 -52 -132 -81.5t-155.5 -29.5t-155.5 29t-132 82q-104 -52 -163.5 -142.5t-59.5 -210.5h1024q0 120 -60.5 210.5t-165.5 142.5v0zM180 375v260
h-12q46 98 138.5 157.5t205.5 59.5t206 -59.5t138 -157.5h-11v-260q55 0 94 38t39 92q0 36 -18.5 66.5t-49.5 47.5q-44 123 -152.5 200t-245 77t-245.5 -77t-152 -200q-32 -17 -50 -47.5t-18 -66.5q0 -54 38.5 -92t94.5 -38v0v0zM512 248q-100 0 -170.5 69t-70.5 167
q0 96 72.5 165.5t168.5 69.5q99 0 169.5 -69t70.5 -166.5t-70.5 -166.5t-169.5 -69v0zM512 765q-119 0 -203.5 -82.5t-84.5 -199.5t84.5 -199.5t203.5 -82.5t203.5 82.5t84.5 199.5t-84.5 199.5t-203.5 82.5v0zM512 765z" />
    <glyph glyph-name="jifen" unicode="&#xe718;" 
d="M430 509q82 0 158.5 17.5t124.5 50.5v-82h62v178q0 51 -52 89.5t-129 56.5t-163.5 18t-163.5 -18t-129 -56.5t-52 -89.5v-484q0 -51 52 -89.5t129 -57t163 -18.5v62q-62 0 -117 10t-90 25.5t-55 33t-20 34.5v145q48 -32 124 -50t158 -18v62q-62 0 -117 10t-90 25.5
t-55 33t-20 34.5v145q48 -32 124 -49.5t158 -17.5v0zM430 776q63 0 118 -10t90 -25.5t55 -33.5t20 -34t-20 -34t-55 -33.5t-90 -25.5t-117.5 -10t-117.5 10t-90 25.5t-55 33.5t-20 34t20 34t55 33.5t90 25.5t117 10v0zM706 475q-109 0 -171 -35t-62 -81v-312q0 -47 62 -81.5
t171 -34.5q107 0 169 34.5t63 80.5v0v313q0 46 -62 81t-170 35v0zM706 414q32 0 60.5 -4.5t48 -10.5t34 -14t21 -14.5t6.5 -12t-6.5 -12t-21 -14.5t-34 -14t-48 -10.5t-61 -4.5t-61 4.5t-48 10.5t-34 14t-21 14.5t-6.5 12t6.5 12t21 14.5t34 14t48 10.5t61.5 4.5v0zM706 -8
q-33 0 -61.5 4t-48 10.5t-34 14t-21 14.5t-6.5 12v75q65 -36 170.5 -36t170.5 36v-75q0 -5 -6.5 -12t-21 -14.5t-34 -14t-48 -10.5t-60.5 -4v0zM706 148q-33 0 -61.5 4t-48 10.5t-34 14t-21 14.5t-6.5 12v74q65 -35 170.5 -35t170.5 35v-74q0 -5 -6.5 -12t-21 -14.5t-34 -14
t-48 -10.5t-60.5 -4v0zM706 148z" />
    <glyph glyph-name="sousuo" unicode="&#xe62b;" 
d="M792 422q0 -95 -46.5 -174.5t-126 -126t-173.5 -46.5t-174 46.5t-126.5 126t-46.5 174t46.5 174t126.5 126t174 46.5t173.5 -46.5t126 -126t46.5 -173.5v0zM446 718q-123 0 -210 -86.5t-87 -209.5t87 -210t210 -87t210 87t87 210t-87 209.5t-210 86.5v0zM879 -66
l-212 217q-9 9 -8.5 21t8.5 20l5 5q8 8 20 8t21 -9l212 -217zM920 -67z" />
    <glyph glyph-name="jiantoujinru" unicode="&#xe679;" 
d="M679 384l-333 -334l40 -40l374 374l-374 374l-40 -40z" />
    <glyph glyph-name="moren" unicode="&#xe694;" 
d="M0 896h960q27 0 45.5 -18.5t18.5 -45.5v-960zM480 548q15 24 24 43l-14 7q-12 -22 -25 -42zM448 571q21 24 31 40l-12 10q-12 -17 -33 -39zM402 617l8 -16q23 10 48 31l-11 13q-23 -19 -45 -28zM583 789l-73 -73l38 -37l-17 -17l-36 37l-12 -12l37 -37l-18 -17
q-25 23 -41 39l-11 -14q62 -58 97 -87l12 12q-15 12 -43 37l17 17l37 -37l12 12l-38 37l17 17l39 -39l72 72zM716 670q-19 -19 -56 -54l-26 26l-14 -14l26 -26q-64 -55 -137 -74q10 18 19 42l-13 7q-10 -23 -22 -43l14 -6q-1 0 -2 -1l-1 -19q59 11 121 53q-43 -62 -50 -124
l21 1q6 70 65 149l35 -35l14 14l-35 36q43 42 55 54zM724 636q-4 -29 -11 -52l17 -3q7 22 10 51zM727 535l-14 -14l30 -30l-80 -79q-5 -5 -13 -4l-8 -19q35 -7 73 -8l11 18q-21 1 -44 3l89 89zM811 572h-20q5 -39 3 -67h20q2 30 -3 67zM907 478q-59 -58 -107 -89
q-56 -33 -122 -28l-2 -22q74 -7 138 34q13 9 20 14q-44 -79 -53 -152l23 1q6 86 68 181q24 20 50 46zM572 678l49 50l28 -28l-50 -50zM623 704q-16 -13 -34 -21l5 -10q19 9 35 22zM534 716l49 49l27 -27l-49 -49zM585 741l-10 5q-9 -19 -19 -36l10 -5q12 20 19 36z" />
    <glyph glyph-name="jia" unicode="&#xe66f;" horiz-adv-x="1028" 
d="M542 613h-55l1 -202h-203v-54h203v-202h54v202h202v54h-202v202zM513.5 896q-104.5 0 -199.5 -40.5t-164 -109t-109.5 -163.5t-40.5 -199t40.5 -199t109.5 -163.5t164 -109t199.5 -40.5t200 40.5t164 109t109.5 163.5t41 199t-41 199t-109.5 163.5t-164 109t-200 40.5z
M513.5 -93q-97.5 0 -186 37.5t-152.5 101.5t-102 152.5t-38 185.5t38 185.5t102 152.5t152.5 101.5t186 37.5t186.5 -37.5t153 -101.5t102 -152.5t38 -185.5t-38 -185.5t-102 -152.5t-153 -101.5t-186.5 -37.5z" />
    <glyph glyph-name="iconfontxiangzuoxiangyoucopy2" unicode="&#xe6a4;" 
d="M406 629l246 -246l-246 -245l-35 35l211 210l-211 210l35 36v0zM406 629z" />
    <glyph glyph-name="iconfontxiangzuoxiangyoucopy" unicode="&#xe6a5;" 
d="M617 629l35 -35l-210 -211l210 -210l-35 -35l-246 245l246 246v0zM617 629z" />
    <glyph glyph-name="xuanzhong" unicode="&#xe637;" 
d="M877 461l147 147l-96 96l-51 -51v78q0 13 -8 21q-4 4 -8.5 6t-7.5 2h-3h-776q-15 2 -21 -8q-8 -6 -8 -19v-773q0 -10 8 -22q8 -8 19 -8v0h776q16 0 22 9q7 8 7 23v499zM848 -42h-774v2v773h774v-107l-405 -405l-253 254l-105 -104l350 -350l413 411v-474z" />
    <glyph glyph-name="weixuanzhong" unicode="&#xe638;" 
d="M877 653v78q0 13 -8 21q-4 4 -8.5 6t-7.5 2h-3h-776q-15 2 -21 -8q-8 -6 -8 -19v-773q0 -10 8 -22q8 -8 19 -8v0h776q16 0 22 9q7 8 7 23v499v192zM848 432v-474h-774v2v773h774v-107v-194z" />
    <glyph glyph-name="guangfayinxing" unicode="&#xe69b;" 
d="M513 452q-51 -103 -115 -200v0v0q-170 -10 -314 -49v0q105 114 187 256.5t127 288.5h1q39 -145 114 -296v0zM398 252q115 7 231 0q95 -143 202 -248q-152 34 -316.5 34.5t-316.5 -33.5v0l3 4l4 3l3 3l3 4l4 3l3 4l3 3l3 3l4 4v0l3 3v0l3 4v0l4 4v0l3 3v0l3 4v0l3 3v0l4 4
v0l3 4v0l3 3v0l3 4v0l4 4v0l3 3v0l3 4v0l3 4v0l3 3v0q64 75 122 162v0zM629 252q-64 96 -116 200q76 152 114 296v0q47 -148 130 -291t188 -256h-1q-146 40 -315 51v0zM629 252q169 -11 315 -51l-113 -197q-107 105 -202 248v0zM398 252q-94 -140 -200 -247l-114 198
q144 39 314 49v0zM627 748q-38 -144 -114 -296q-75 151 -114 296h228v0z" />
    <glyph glyph-name="kefu" unicode="&#xe6df;" 
d="M889 -65q-12 108 -79.5 191.5t-167.5 119.5q62 34 99.5 95.5t37.5 135.5q0 108 -77 185t-185.5 77t-185.5 -77t-77 -185q0 -74 37.5 -135.5t99.5 -95.5q-98 -35 -165 -116.5t-81 -186.5q-2 -5 -2 -11v-2q0 -14 12 -22q4 -4 11 -4h1h2.5h1.5h692h2q10 0 17.5 7.5t7.5 17.5
v3l-0.5 1.5zM298 476.5q0 90.5 64 154.5t154.5 64t154.5 -64t64 -154.5t-64 -154.5t-154.5 -64t-154.5 64t-64 154.5zM484 216q18 -2 32.5 -2t32.5 2q107 -10 186.5 -83t99.5 -178h-637q20 105 99.5 178t186.5 83zM889 570h-16q-4 92 -54 159.5t-129.5 101t-177.5 33.5
t-177.5 -33.5t-129 -101t-53.5 -159.5h-17q-12 0 -20.5 -8.5t-8.5 -20.5v-157q0 -12 8.5 -20.5t20.5 -8.5h28q13 0 21.5 8.5t8.5 20.5v23v6l1 142q0 84 43.5 145.5t114.5 91.5t160.5 30t160.5 -30t114.5 -91.5t43.5 -145.5q1 -105 -1 -141q0 -6 1 -12v-18q0 -12 8.5 -20.5
t21.5 -8.5h28q12 0 20.5 8.5t8.5 20.5v157q0 12 -8.5 20.5t-20.5 8.5z" />
    <glyph glyph-name="youzhengchuxu-copy" unicode="&#xe69d;" 
d="M587 646l21 154h324l15 96h-367l-17 -149h-200l-47 -310h-199l-40 -260h198l-47 -305h414l49 305h150l14 100h-187l-51 -305h-327l9 49h286l46 316h233l17 100h-277l-49 -309h-241l4 51h198l39 254h-197l7 56h286l21 155h230l20 98h-278l-21 -151h-243l8 53zM294 282
h-157l10 55l154 -2zM499 335l-8 -53h-154l6 55h156v-2z" />
    <glyph glyph-name="iconddsho" unicode="&#xe63c;" 
d="M791 753q-40 0 -75 -17t-59 -48l-213 122q-7 4 -14 0l-360 -207q-8 -4 -8 -12v-3v0v-411q0 -8 8 -13l360 -206v0v-1h1v0q1 0 1 -1h1h1v0h1h1h1v0v0h1h1h1v0h1v0q1 1 2 1v0h1v1v0l360 206q7 5 7 13v238q64 8 107.5 56t43.5 113q0 70 -50 119.5t-121 49.5zM437 781
l204 -117q-20 -38 -20 -80q0 -36 14 -68l-20 -12l-330 189zM92 186v376l327 -187l3 -379zM434 401l-331 188l152 88l331 -190zM782 186l-331 -190l-2 380l200 114q22 -33 57 -53t76 -23v-228zM895 615l-105 -104q-9 -9 -21 -9t-20 9l-61 61q-9 8 -9 20.5t8.5 21t20.5 8.5
t21 -9l40 -40l85 84q8 8 20 8t20.5 -8.5t8.5 -20.5t-8 -21z" />
    <glyph glyph-name="iconzhenghe0729fuzhi94" unicode="&#xe765;" 
d="M766 245q7 -10 18 -12t20 4.5t11 17.5t-4 21q-18 26 -41 49q-49 48 -114 73q47 30 75 80t28 109q0 92 -65 157.5t-157 65.5t-157 -65.5t-65 -157.5q0 -59 28 -109t76 -81q-72 -27 -125 -84q-94 -104 -94 -254v-9v-44q1 -11 8.5 -18t18.5 -7h2q11 0 18.5 8.5t6.5 20.5v39
v10q0 129 80 216q75 83 189 89q7 -1 14 -1t15 1q106 -5 180 -79q19 -18 34 -40zM551 418q-7 1 -13 1t-14 -1q-65 5 -109.5 53.5t-44.5 115.5q0 69 49 118.5t118 49.5t118 -49.5t49 -118.5q0 -67 -44.5 -115t-108.5 -54zM901 83v0.5v0.5v1.5t-0.5 1.5l-0.5 1l-0.5 1t-0.5 1.5
t-0.5 1.5l-0.5 1l-0.5 1t-1 1.5l-1 1l-0.5 0.5q-1 2 -2 2l-91 93q-8 8 -19.5 8t-19.5 -8t-8 -19.5t8 -19.5l45 -46h-168q-11 0 -19 -8t-8 -19t8 -19t19 -8h169l-46 -46q-8 -8 -8 -19.5t8 -19.5t19.5 -8t19.5 8l91 92q8 8 8 20v3z" />
    <glyph glyph-name="dianhua" unicode="&#xe62f;" 
d="M616 -64q-6 0 -14 1q-162 24 -335 213q-95 104 -142.5 199.5t-37.5 160.5v0q4 25 20 49t33.5 39.5t41 30t32 19t16.5 7.5q8 4 16.5 1t12.5 -10l105 -177q6 -9 2.5 -19.5t-13.5 -14.5v0q-13 -7 -16 -23q-10 -46 62 -132q63 -75 119 -77q33 -2 55 21q7 6 16 7t16 -5
l165 -125q16 -11 7 -29q-4 -7 -9.5 -16.5t-22 -33t-34 -41t-43.5 -31.5t-52 -14v0zM230 603q-35 -19 -63.5 -45.5t-33.5 -54.5v0q-7 -49 33 -133t136 -188q161 -177 307 -199q31 -4 62 25t54 68l-134 101q-34 -23 -73 -21q-78 2 -155 93q-89 106 -72 175q6 23 22 39l-83 140
v0zM906 318q-9 0 -15.5 6t-7.5 15q-3 23 -7 43q-2 10 3.5 18t15 10t17.5 -3.5t10 -15.5q5 -23 8 -46q1 -10 -5 -17.5t-16 -9.5h-3v0zM870 459q-16 0 -22 15q-6 14 -11 26q-28 61 -71 114q-98 121 -245 171q-9 3 -13 12t-1 18t12 13.5t18 1.5q159 -55 266 -187
q46 -57 77 -123q6 -14 12 -29q4 -9 0 -18t-13 -12q-5 -2 -9 -2v0zM762 322q-8 0 -14.5 5.5t-8.5 13.5q-17 102 -83 183.5t-162 119.5q-9 4 -13 13t0 18t13 12.5t18 0.5q107 -43 180 -134q74 -91 94 -205q1 -9 -4.5 -17t-15.5 -10h-4v0zM615 330q-17 0 -22 16q-15 50 -47 89
q-33 41 -79 66q-9 4 -11.5 13.5t2 18t14 11.5t17.5 -2q54 -29 93 -77q39 -47 56 -105q3 -9 -2 -18t-14 -11q-3 -1 -7 -1v0z" />
    <glyph glyph-name="mulu" unicode="&#xe660;" 
d="M40 675h944q16 0 28 12t12 28.5t-12 28.5t-28 12h-944q-16 0 -28 -12t-12 -28.5t12 -28.5t28 -12zM984 406h-944q-16 0 -28 -12t-12 -28.5t12 -28.5t28 -12h944q16 0 28 12t12 28.5t-12 28.5t-28 12zM984 55h-944q-16 0 -28 -11.5t-12 -28.5t12 -28.5t28 -11.5h944
q16 0 28 11.5t12 28.5t-12 28.5t-28 11.5z" />
    <glyph glyph-name="jiaotongyinhang" unicode="&#xe69e;" 
d="M780 154q-31 -1 -86.5 -3t-72.5 -2q-10 -42 -46 -66t-79.5 -23t-84 17.5t-63.5 57t-14 92.5q7 53 51.5 86t102.5 31t102 -42q16 -18 24 -37.5t13 -53.5q25 1 79 3t74 3q0 68 -28.5 125.5t-77.5 93.5t-109 53.5t-127 9.5t-126 -42q-56 -32 -90.5 -88.5t-40.5 -120.5
t8 -127t54.5 -115t99.5 -77v-5q-83 1 -160.5 57t-97.5 131l2 543q43 29 135.5 94.5t136.5 94.5q2 -1 5.5 -2.5t4.5 -2.5q-7 -105 3 -315q10 9 31 31t32.5 32.5t31.5 25.5t42.5 24t49.5 14q85 16 156 -8q67 -23 116.5 -67t75 -96.5t30.5 -112.5t-11 -115t-55 -103.5
t-96 -78.5q-3 0 -12 -5.5t-14 -6.5q0 1 1.5 3.5t4 6.5t4.5 7q3 12 10 38.5t11 40.5zM780 154z" />
    <glyph glyph-name="wuliu" unicode="&#xe6ac;" 
d="M511 384zM0 384q0 -104 40.5 -198.5t109 -163t163 -109t198.5 -40.5t198.5 40.5t163 109t108.5 163t40 198.5t-40 198.5t-108.5 163t-163 109t-198.5 40.5t-198.5 -40.5t-163 -109t-109 -163t-40.5 -198.5v0zM934 306q25 0 46 -12.5t32 -33.5q12 42 12 133
q0 69 -21.5 142t-55.5 118h-320q-21 0 -36 -15t-15 -36v-384h269q0 36 26 62t63 26zM371 549l-121 -133q-7 -9 -7 -17v-130q0 -21 15 -36t36 -15h26q0 37 26 63t63.5 26t63.5 -26t26 -63h64v331h-192zM538 408h-256l102 116h154v-116zM409.5 280q-26.5 0 -45 -18.5
t-18.5 -45.5t18.5 -45.5t45 -18.5t45.5 18.5t19 45.5t-19 45.5t-45.5 18.5zM409.5 191q-10.5 0 -18 7.5t-7.5 18t7.5 18t18 7.5t18 -7.5t7.5 -18t-7.5 -18t-18 -7.5zM934.5 280q-26.5 0 -45.5 -18.5t-19 -45.5t19 -45.5t45.5 -18.5t45 18.5t18.5 45.5t-18.5 45.5t-45 18.5z
M934.5 191q-10.5 0 -18 7.5t-7.5 18t7.5 18t18 7.5t18 -7.5t7.5 -18t-7.5 -18t-18 -7.5zM1007 268q1 -2 3 -4.5t2 -3.5q2 2 2 8h-7zM627 434l141 -128v77l253 1l3 101h-256v77z" />
    <glyph glyph-name="tongzhi" unicode="&#xe736;" 
d="M366 88h-105q-63 0 -107.5 45t-44.5 108v397q0 63 44.5 107.5t108.5 44.5h500q63 0 108 -44.5t45 -107.5v-397q0 -63 -45 -108t-108 -45h-131v0q-11 0 -19 -7l-137 -143q-7 -8 -7 -18q0 -11 8 -18q8 -8 18 -8q11 0 18 8l137 143l-18 -8h131q84 0 144 59.5t60 144.5v397
q0 84 -60 144t-144 60h-500q-85 0 -144.5 -60t-59.5 -144v-397q0 -84 59.5 -144t143.5 -60h105q11 0 18.5 7.5t7.5 18t-7.5 18t-18.5 7.5v0zM280 509h392q11 0 18.5 7.5t7.5 18t-7.5 18t-18.5 7.5h-392q-11 0 -18.5 -7.5t-7.5 -18t7.5 -18t18.5 -7.5zM280 349h464
q10 0 17.5 7.5t7.5 18t-7.5 18t-17.5 7.5h-464q-11 0 -18.5 -7.5t-7.5 -18t7.5 -18t18.5 -7.5v0z" />
    <glyph glyph-name="shouye" unicode="&#xe737;" 
d="M967 472l-394 311q-26 21 -61 21t-61 -21l-394 -311q-10 -8 -11.5 -21t6.5 -23q9 -12 24 -12q11 0 19 7l12 10v-377q0 -39 33.5 -66.5t72.5 -27.5h623q37 0 59 26t22 68v375l11 -8q9 -7 20 -7q15 0 24 12q8 10 6.5 23t-11.5 21zM481 25v172q0 13 31 13t31 -13v-172h-62z
M855 56q0 -31 -19 -31h-230v0.5v0.5v171q0 30 -24.5 52.5t-69.5 22.5t-69 -22.5t-24 -52.5v-171l0.5 -0.5l0.5 -0.5h-207q-15 0 -29.5 10t-14.5 21v426l321 253q8 7 21.5 7t21.5 -7l321 -254z" />
    <glyph glyph-name="fenleion" unicode="&#xe738;" 
d="M855 410h-227q-38 0 -64.5 26.5t-26.5 64.5v242q0 38 26.5 64.5t64.5 26.5h227q38 0 64.5 -26.5t26.5 -64.5v-242q0 -38 -26.5 -64.5t-64.5 -26.5zM389 410h-227q-38 0 -64.5 26.5t-26.5 64.5v242q0 38 26.5 64.5t64.5 26.5h227q38 0 64.5 -26.5t26.5 -64.5v-242
q0 -38 -26.5 -64.5t-64.5 -26.5zM389 -65h-227q-38 0 -64.5 27t-26.5 64v242q0 38 26.5 64.5t64.5 26.5h227q38 0 64.5 -26.5t26.5 -64.5v-242q0 -37 -26.5 -64t-64.5 -27zM750.5 -46q-84.5 0 -144 59.5t-59.5 144t59.5 144t144 59.5t144.5 -59.5t60 -144t-60 -144
t-144.5 -59.5z" />
    <glyph glyph-name="fenlei" unicode="&#xe739;" 
d="M855 410h-227q-38 0 -64.5 26.5t-26.5 64.5v242q0 38 26.5 64.5t64.5 26.5h227q38 0 64.5 -26.5t26.5 -64.5v-242q0 -38 -26.5 -64.5t-64.5 -26.5zM628 779q-15 0 -25.5 -10.5t-10.5 -25.5v-242q0 -15 10.5 -25.5t25.5 -10.5h227q15 0 26 10.5t11 25.5v242q0 15 -11 25.5
t-26 10.5h-227zM389 410h-227q-38 0 -64.5 26.5t-26.5 64.5v242q0 38 26.5 64.5t64.5 26.5h227q38 0 64.5 -26.5t26.5 -64.5v-242q0 -38 -26.5 -64.5t-64.5 -26.5zM162 779q-15 0 -25.5 -10.5t-10.5 -25.5v-242q0 -15 10.5 -25.5t25.5 -10.5h227q15 0 25.5 10.5t10.5 25.5
v242q0 15 -10.5 25.5t-25.5 10.5h-227zM389 -65h-227q-38 0 -64.5 27t-26.5 64v242q0 38 26.5 64.5t64.5 26.5h227q38 0 64.5 -26.5t26.5 -64.5v-242q0 -37 -26.5 -64t-64.5 -27zM162 305q-15 0 -25.5 -11t-10.5 -26v-242q0 -15 10.5 -25.5t25.5 -10.5h227q15 0 25.5 10.5
t10.5 25.5v242q0 15 -10.5 26t-25.5 11h-227zM750.5 -46q-84.5 0 -144 59.5t-59.5 144t59.5 144t144 59.5t144.5 -59.5t60 -144t-60 -144t-144.5 -59.5zM750.5 307q-61.5 0 -105.5 -44t-44 -105.5t44 -105.5t105.5 -44t105.5 44t44 105.5t-44 105.5t-105.5 44z" />
    <glyph glyph-name="shouyeon" unicode="&#xe73a;" 
d="M967 472l-395 311q-25 21 -60 20.5t-61 -20.5l-394 -311q-10 -9 -11.5 -21.5t6.5 -22.5t20.5 -11.5t22.5 6.5l13 10v-377q0 -39 33 -66t73 -27h622q37 0 59 25.5t22 67.5v376l11 -9q8 -7 20 -7q15 0 24 12q8 10 6.5 23t-11.5 21zM419 25v172q0 30 24 52.5t69 22.5
t69 -22.5t24 -52.5v-171q0 -1 0.5 -1.5l0.5 -0.5h-27.5t-68 0.5t-60 0.5h-31.5z" />
    <glyph glyph-name="gouwuche" unicode="&#xe73b;" 
d="M244 75q-30 0 -51 -21t-21 -51t21 -51t51 -21t51 21t21 51t-21 51t-51 21zM883 75q-30 0 -51 -21t-21 -51t21 -51t51 -21t51 21t21 51t-21 51t-51 21zM388 302h371v0q13 0 22 9t9 22v0v0q0 12 -9 21t-22 9v0h-371v0q-13 0 -22 -9t-9 -21v0v0q0 -13 9 -22t22 -9v0z
M388 466h371v0q13 0 22 9.5t9 21.5v0v0q0 13 -9 22t-22 9v0h-371v0q-13 0 -22 -9t-9 -22v0q0 -12 9 -21t22 -10zM388 631h371v0q13 0 22 9t9 22v0v0q0 13 -9 22t-22 9v0h-371v0q-13 0 -22 -9t-9 -22v0v0q0 -13 9 -22t22 -9v0zM192 714v-474q1 -4 1.5 -11t5.5 -25t12.5 -31.5
t24.5 -24.5t39 -11h577q4 1 11 3.5t24.5 13t31.5 23t25 35t11 48.5v340v124v0q0 13 -9 22t-22 9v0v0q-13 0 -22 -9t-9 -22v0v-464q0 -2 -0.5 -6.5t-4 -15t-9.5 -18.5t-18.5 -14.5t-29.5 -6.5h-536h-4t-10 3.5t-12.5 9.5t-10 18.5t-4.5 29.5v454q1 3 1 8t-1.5 19.5t-5 26.5
t-12.5 26t-23 23q-17 10 -33 15t-23 6t-24.5 0t-22.5 -1h-4.5t-9.5 -2.5t-12.5 -6.5t-10 -12.5t-4.5 -19.5q0 -8 4.5 -12.5t13.5 -6.5t15 -2.5t17 0t12 0.5q7 1 16 -1.5t20 -8t18 -19t7 -32.5v0z" />
    <glyph glyph-name="gouwucheon" unicode="&#xe73c;" 
d="M244 3zM172 3q0 -30 21 -51t51 -21t51 21t21 51t-21 51t-51 21t-51 -21t-21 -51zM883 3zM811 3q0 -30 21 -51t51 -21t51 21t21 51t-21 51t-51 21t-51 -21t-21 -51zM924 755h-670v0q1 1 1 3.5t-1.5 10t-5 14.5t-12.5 16.5t-22 17.5q-18 10 -33.5 15.5t-22.5 6t-25 0
t-22 -0.5q-2 0 -5 -0.5t-10 -2.5t-12.5 -6t-9.5 -12.5t-4 -19.5q0 -8 4.5 -12.5t13.5 -6.5t15 -2.5t17 0t12 0.5q7 0 16 -2t20 -8t18.5 -19.5t7.5 -32.5v-474q0 -4 0.5 -11t5.5 -24.5t12.5 -31.5t24.5 -25t39 -11h577q4 1 11 4t25 13t31.5 23t24.5 35.5t11 48.5v340v123
q-1 13 -10 22t-22 9zM759 302h-371q-13 0 -22 9t-9 21.5t9 21.5t22 9h371q12 0 21.5 -9t9.5 -22q0 -12 -9 -21t-22 -9zM759 466h-371q-13 0 -22 9t-9 22t9 22t22 9h371q12 0 21.5 -9t9.5 -22t-9 -22t-22 -9zM759 631h-371q-13 0 -22 9t-9 22t9 22t22 9h371q12 0 21.5 -9
t9.5 -22t-9 -22t-22 -9z" />
    <glyph glyph-name="wode" unicode="&#xe73d;" 
d="M666 345q62 37 98.5 99t36.5 136q0 113 -79 192t-192 79t-192 -79t-79 -192q0 -74 36.5 -136t99.5 -99q-126 -44 -205 -152.5t-79 -245.5q0 -13 8.5 -21.5t22.5 -8.5h783q13 0 21.5 8.5t8.5 21.5q-3 137 -83.5 247t-205.5 151zM319 580q0 88 61.5 149.5t149.5 61.5
t149.5 -61.5t61.5 -149.5t-61.5 -149.5t-149.5 -61.5t-149.5 61.5t-61.5 149.5zM169 -23q11 141 115 236.5t246 95.5t245 -95.5t116 -236.5h-722v0z" />
    <glyph glyph-name="wodeon" unicode="&#xe73e;" 
d="M666 345q62 37 98.5 99t36.5 136q0 113 -79 192t-192 79t-192 -79t-79 -192q0 -74 36.5 -136t99.5 -99q-126 -44 -205 -152.5t-79 -245.5q0 -13 8.5 -21.5t22.5 -8.5h783q13 0 21.5 8.5t8.5 21.5q-3 137 -83.5 247t-205.5 151z" />
    <glyph glyph-name="qinggengcai" unicode="&#xe73f;" 
d="M874 573q-31 19 -74 19q-31 0 -59 -12q6 28 3 48q-6 55 -44 98.5t-89.5 65.5t-105.5 22q-45 0 -93 -18t-81 -57q-55 -62 -44 -152l2 -9q-30 14 -64 14q-42 0 -74 -19q-101 -60 -91 -141q6 -45 43.5 -81t84.5 -49q124 -36 160 -46l6 -2q13 -28 12 -44t-10 -50
q-6 -25 -9 -40.5t-2 -41t10 -47.5q12 -33 38 -52t58 -19q15 0 30 5q19 -10 33 -10t33 9q12 -4 27 -4q32 0 58 19.5t38 51.5q9 23 10 49t-2 40t-9 41q-9 34 -10 50t12 44q85 24 166 48q47 14 84.5 50t43.5 81q8 79 -91 139zM720 334l84 108l-112 -78q-37 -26 -64 -68l0.5 1
l0.5 1q16 54 69.5 123.5t99.5 83.5q10 3 22 3q25 0 38 -14q11 -11 10 -32q-1 -27 -17.5 -52t-43.5 -44t-52.5 -32.5t-53.5 -24.5q5 6 9.5 12.5t7 9.5zM508 38q-24 26 -25 91q-2 71 28 170q31 -104 31 -174q0 -66 -23 -88l-5 5zM219 442l85 -108q8 -10 18 -25q-28 11 -53 25
t-52 33t-44 44t-18 51q-1 22 10 33q14 14 39 14q12 0 22 -3q45 -14 99 -84t70 -124l0.5 -0.5t0.5 -1.5q-26 41 -64 69zM507 314l-30 12q-9 -18 -13 -27q-88 169 -87 276q0 66 39 108.5t100 42.5h8q19 -1 46 -16t47 -42q47 -61 27 -152q-22 -93 -86 -216q-9 22 -15 34
l-38 -15q1 -2 2 -5zM420 285q17 -25 24 -36q-7 -20 -13 -40q-8 37 -28 73zM592 206q-9 30 -14 43q3 5 24 37l19 -3q-22 -39 -29 -77z" />
    <glyph glyph-name="bocai" unicode="&#xe740;" 
d="M847 640q66 -83 82 -186q24 -154 -47.5 -279.5t-215.5 -185.5q-110 -46 -234 -20q-40 8 -62.5 34t-24.5 67q-4 63 11.5 125t45.5 137q49 125 135 212q22 23 50 39q36 20 56 -4q23 -28 -3 -56q-30 -31 -66 -57q-8 -6 -17 -12t-22.5 -13t-20.5 -11q4 -5 11 -15.5t11 -15.5
q22 -29 17.5 -55t-35.5 -44q-19 -11 -55.5 -29t-48.5 -24q41 7 65.5 12.5t58.5 18.5t60 31q27 19 27.5 40t-25.5 56q6 3 20.5 9.5t24.5 11.5t18 11q37 24 53 49q29 43 9 83t-73 46q-57 6 -103 -18t-92 -72q-101 -104 -132 -292q-1 -9 -10 -76q-23 44 -27 53q-67 162 -18 315
q28 89 110 114q13 4 22 21q28 42 59 56.5t80 7.5q6 -1 28 9q12 5 33.5 16.5t40 19t34.5 9.5q71 10 108 -32.5t19 -112.5q-4 -13 -11 -28t-16 -33l-14 -28q-9 -20 -5 -25q35 -47 -11 -101q-24 -26 -14 -59q7 -22 -2 -42.5t-29 -33.5q-17 -11 -88 -43q-178 -80 -185 -84
q-41 -20 -42 -71q-2 -74 65 -85q170 -31 305 80q113 94 138.5 231t-45.5 266q-4 8 -7 18t-5.5 22.5t-4.5 19.5q4 0 14 3zM323 7q-90 41 -151 124.5t-77 184.5t20 210q38 103 118 172.5t175 93.5t186 2q-5 -7 -11.5 -12t-11 -7t-14 -3.5t-13 -1.5h-15h-14.5
q-122 2 -221.5 -65t-143.5 -179q-49 -126 -12 -253t147 -209q8 -6 15.5 -14.5t15.5 -20t13 -17.5q-5 -3 -6 -5z" />
    <glyph glyph-name="jielan" unicode="&#xe741;" 
d="M753 689h-3q-2 6 -7 18t-7.5 16.5t-8 11t-14 8.5t-21.5 2h-2q-6 24 -29 40.5t-53 16.5q-21 35 -66 35q-28 0 -49 -16t-25 -40q-20 8 -39 8q-27 0 -50 -12q-4 3 -3.5 5t2.5 3.5t1 2.5t-7 1q-32 0 -54.5 -19t-22.5 -47q0 -6 2 -12h-3q-12 0 -21.5 -5.5t-15.5 -11.5t-11 -20
t-7 -20.5t-5.5 -24.5t-4.5 -21q-50 -30 -50 -82q0 -45 14.5 -70.5t55.5 -27.5q6 -12 17 -24q11 -46 30.5 -69t64.5 -23q27 0 51 9v4l9 4q28 10 28 37q0 15 -12 26l-14 13l18 8q25 11 25 36q0 8 -3 15l-9 18h66l4 -4q25 -21 60 -15l19 3v-40l-10 -3q-14 -5 -22 -15t-8 -22.5
t8 -22.5t22 -15l10 -3v-24q26 -10 51 -10q98 0 98 115q18 0 30 5t18.5 10.5t9.5 19.5t3 22t-0.5 29t-0.5 30t0.5 27.5t0.5 29.5t-1 27t-5 25.5t-10 19t-17.5 14t-26.5 4.5zM646 305l-57 -125v156q-18 7 -29 20t-11 30t11 30.5t29 19.5v15q-9 -2 -17 -2q-34 0 -57 21h-36
q4 -10 4 -21q0 -32 -33 -48q16 -15 16 -35q0 -17 -10.5 -30t-27.5 -20v-102l-30 95l-36 -11l67 -207v-159h160v159l91 198z" />
    <glyph glyph-name="caixin" unicode="&#xe742;" 
d="M892 420q3 10 -7 14q6 2 7 8q2 10 -9 13q6 3 6 9q1 10 -10 11q5 4 4 10q0 11 -11 10q4 5 3 10q-3 11 -13 9q4 5 2 10q-4 10 -14 7q3 6 0 11q-5 9 -14 5q2 6 -1 10q-7 9 -16 3q2 6 -2 11q-7 7 -16 0q1 6 -3 10q-9 7 -16 -1q0 6 -5 9q-9 6 -15 -3q-1 6 -6 8q-10 5 -15 -5
q-2 6 -7 7q-11 3 -14 -7q-3 6 -8 7q-11 1 -13 -10q-3 6 -9 6q-9 0 -11 -9v0v0v0q2 5 0 10q-2 3 -5 5q2 0 4 2q3 2 4 5q3 10 -7 14q6 2 7 8q2 11 -9 13q6 3 6 9q1 11 -10 12q5 3 4 10q-1 10 -11 10q4 4 3 10q-2 11 -13 8q4 5 2 11q-4 10 -14 7q3 5 0 10q-5 10 -14 5
q2 6 -2 11q-6 9 -15 2q2 7 -2 11q-8 8 -16 0q1 7 -4 11q-8 6 -15 -2q0 6 -5 10q-9 5 -15 -4q-1 6 -7 9q-9 4 -14 -6q-2 6 -8 8h-0.5h-0.5q-9 2 -12 -7q-2 5 -9 6q-10 1 -12 -9q-3 5 -9 5q-10 0 -11 -9q-4 4 -8.5 4t-7.5 -3.5t-3 -8.5v0q-3 4 -8 4t-8.5 -3.5t-3.5 -7.5
q0 -3 2 -6v0l-2 2q-3 2 -7 2q-10 0 -11 -11q-2 0 -4 -1q-10 -5 -5 -14q-6 2 -11 -2q-8 -6 -2 -15q-6 2 -11 -3q-7 -7 0 -15q-6 1 -10 -4q-7 -8 1 -15q-6 0 -9 -6q-5 -8 3 -14q-6 -1 -8 -7q-4 -10 5 -14q-5 -2 -7 -8q-2 -9 6 -13h1q0 -1 -1 -1q-4 -3 -5 -8q-1 -4 2 -8
q-8 5 -14 -2q0 6 -5 9q-9 6 -15 -3q-1 6 -7 8q-10 4 -14 -5q-2 6 -8 8q-10 2 -13 -8q-3 6 -9 7q-10 1 -12 -9q-3 5 -10 5q-9 0 -11 -9q-3 3 -8 3q-4 0 -7.5 -3t-3.5 -8v0q-3 4 -8 4q-4 0 -7.5 -3.5t-3.5 -7.5t2 -6v0q-1 0 -2 1v0q-3 3 -7 3q-11 0 -11 -11q-3 0 -5 -1
q-9 -5 -4 -15q-6 3 -11 -1q-9 -6 -3 -15q-6 2 -10 -3q-8 -7 -1 -15q-6 1 -10 -4q-6 -9 2 -15q-6 0 -9 -6q-6 -9 3 -15q-6 -1 -8 -6q-4 -10 5 -14q-6 -2 -7 -8q-3 -9 6 -13l1 -1h-1q-5 -3 -5 -8q-1 -5 2 -8q2 -4 7 -4q-5 -4 -5 -10v-1v-2q2 -7 9 -8h1v0q-5 -4 -4 -10
q2 -11 12 -9q-4 -5 -2 -11q3 -10 13 -8q-4 -5 -1 -10q4 -10 14 -6q-3 -6 0 -11q6 -9 15 -4q-2 -6 2 -11q6 -8 15 -1q-1 -7 3 -11q8 -7 15 0q0 -6 5 -10q8 -6 15 3q0 -6 6 -9q9 -6 15 4q1 -6 6 -9q11 -3 15 7q1 -6 7 -8q11 -2 14 8q2 -5 8 -6q11 -1 12 10q4 -5 10 -5
q8 0 10 8v3q4 -4 10 -4q10 2 9 12v1q5 -4 11 -2q10 3 7 14q5 -4 11 -1q10 4 5 14q6 -3 11 1q9 6 3 15q6 -2 11 2q8 7 1 15q6 -1 10 4q7 8 -1 15q7 0 10 5q6 9 -3 15q7 1 9 6q1 3 1 5v2q-1 5 -6 8q3 0 5 3v0q3 2 3 4q3 8 -4 13v0q-1 1 -2 1q1 1 2 1q4 3 4 7q2 8 -5 12
q-2 1 -3 1l2 2q4 3 4 7v0l2 2q-1 -7 4 -10q9 -6 15 2q1 -6 6 -9q9 -5 15 5q1 -7 7 -9q10 -3 14 6q2 -5 8 -7h1q10 -1 12 8q3 -6 9 -6q11 -1 12 10q4 -6 9 -5q2 0 4 1q0 -1 -1 -1.5l-1 -0.5q-2 -7 2 -12q2 -2 4 -3q-2 0 -4 -1q-3 -3 -4 -6q-2 -7 4 -12l4 -2l-4 -2v-1
q-3 -2 -3 -6q0 -5 3 -8q2 -3 6 -4q-5 -3 -5 -9q0 -11 11 -11q-5 -4 -4 -10q1 -11 12 -10q-4 -4 -3 -10q3 -10 14 -8q-4 -5 -2 -11q4 -7 12 -6q2 0 3 1q-3 -6 0 -11q5 -9 15 -4q-3 -6 1 -11q7 -8 16 -2q-2 -6 3 -10q7 -7 15 0q-1 -6 4 -10q2 -1 3 -1q8 -3 12 4q1 -7 6 -10
q10 -5 15 5q1 -6 7 -9q10 -3 14 7q2 -6 8 -8q10 -2 13 8q3 -5 9 -6q10 -1 12 10q3 -5 9 -5q11 1 11 11q4 -4 10 -3q10 2 9 12q5 -4 10 -2q11 3 8 14q5 -4 11 -1q9 4 5 14q6 -3 11 1q9 6 3 15q6 -2 10 2q9 7 2 15q6 -1 10 4q7 8 -1 15q7 0 10 5q6 9 -3 15q6 1 9 6v0q2 5 0 10
q-2 3 -5 5l4 2q2 0 4 4zM362 585v0q-1 2 -2 3q1 -1 4 -1v0zM573 465v1l2 -1h-1h-1zM730 353q-28 -27 -49 -57l-3 -3q0 -1 -1 -2l-8 -12q-7 -12 -13 -24l-3 -6q-3 -6 -6 -13q-16 -35 -24.5 -73.5t-10 -66.5t0 -56t2.5 -37.5t2 -14.5v0h-176q12 67 -11 163q-13 56 -49 103
q-1 2 -8 10q-3 4 -4 6q-12 13 -24 23l-5 4l-4 3v0v7l-2 14q8 -3 15 -8q3 -1 4 -2q3 -1 4 -2q2 -2 7 -5h1q2 -2 6 -5q10 -8 19 -17l1 -1l1 -1l7 -7q24 -27 42 -63t24 -58l6 -22l-13 177v0l-1 13v4v3l-4 52v2l-1 14v0l-1 10v1v3l-1 3v2v5v1l-1 5v0v5l-1 9v0v3v0v3v0l-1 19v0
l-1 2v0v6l-1 11v4l-1 7v0l-3 40l81 4l47 2h1v0l-1 -59v-5l-1 -14v-1v-14v0v-5v-15v-5v-1v-1v-13v-1l-1 -12v-6v0v-16v-6v0v-13v0l-1 -28v-6v-2v-14l-1 -87q7 36 25 75v0q4 9 7 14l2 5l1 1q2 4 6 11v0l1 2t2 3v0q0 1 1 2.5t2 2.5v0q0 1 0.5 1.5l0.5 0.5l1 2q0 1 1.5 3t2.5 3
v0q3 6 5 9l1 2q3 4 4 6h1q5 9 6 10v0v1q6 9 11 16h1q0 1 2 3.5t3 3.5v1q2 3 6 8l0.5 0.5l0.5 0.5q7 9 13 16q2 2 2 3v0v0h1l29 -36z" />
    <glyph glyph-name="jimaocai" unicode="&#xe743;" 
d="M239 -19q20 122 26 146q2 12 -1 17.5t-12 12.5q-19 15 -59.5 47t-62.5 49q5 5 87 77q-19 22 -49 58.5t-43 50.5q8 5 37 24t45 28q17 11 10 33q-5 12 -21 65q56 6 74 7q23 2 24 24q0 7 4 87q82 -9 98 -10q19 -1 32.5 13t65.5 73q11 -14 24.5 -30t29 -36t24.5 -30
q4 2 31 17t42 24q2 -4 18.5 -25t23.5 -32q14 -21 37 -16q15 4 79 13q0 -76 -1 -85q0 -22 21 -26q17 -3 47.5 -10t36.5 -8q-45 -52 -53 -62q-70 -91 -26 -195q5 -11 20 -41.5t21 -46.5q22 -56 17 -91t-43 -69q-2 -2 -11.5 -10t-12.5 -10.5t-11.5 -10t-13 -9.5t-13 -7
t-14.5 -6.5l-14 -3.5t-16.5 -1.5t-17.5 2.5q-20 4 -71 27q-13 6 -42.5 21t-45.5 22q-38 14 -75 16.5t-72 -6.5t-66 -23.5t-66 -37.5q-7 -3 -18 -11t-14 -10q-1 1 -10 5zM360 396q2 -1 4 -2.5t3.5 -2.5t2.5 -1q157 -69 281 -244q14 -19 41.5 -55.5t32 -42t9.5 -9t12.5 -4
t10.5 -0.5t13.5 2.5l10.5 2.5q7 1 14.5 10t6.5 14q-4 39 -19 53q-135 135 -228 217q-21 19 -46 37.5t-57.5 41t-49.5 34.5q-12 -14 -42 -51zM837 104q9 43 -13 87q-39 81 -67 146q-16 37 -70 177q-22 -13 -41 -25q46 -108 51 -121q35 -91 42 -121q7 -28 24 -55.5t30.5 -42.5
t43.5 -45zM385 95q14 0 41.5 1t48.5 0.5t40 -2.5q78 -11 159 -75q7 -6 11 -8.5t11 -5.5t14.5 -1.5t16.5 6.5q-7 7 -22.5 22t-26.5 27t-19 24q-30 47 -93 53q-20 2 -160 8q-27 2 -23 -26q1 -4 1 -13t1 -10zM686 271q0 1 2 2t3 2q-6 12 -23.5 54t-28.5 67q-8 -6 -25.5 -19.5
t-28.5 -20.5q64 -55 101 -85zM573 175l5 5q-16 14 -46 42t-41 39q-8 -19 -29 -67q23 -4 60 -10.5t51 -8.5z" />
    <glyph glyph-name="tongzhi1" unicode="&#xe744;" 
d="M510.5 809q115.5 0 213 -57t154.5 -155t57 -213t-57 -213t-154.5 -155t-213 -57t-213.5 57t-154.5 155t-56.5 213t56.5 213t154.5 155t213.5 57zM542 203v366q0 1 -1 3t-4.5 6.5t-8 6.5t-11.5 0.5t-15 -8.5l-98 -89h-108q-6 0 -9 -0.5t-6.5 -6.5t-3.5 -19v-157
q0 -10 5.5 -16t13.5 -6h102l105 -91q11 -11 25 -10.5t14 21.5v0zM744 372q2 48 -18.5 92t-59.5 77q-12 8 -25 -3.5t-6 -22.5q70 -58 66 -141q-4 -75 -68 -127q-9 -11 6 -22t24 -5q76 63 81 152zM616 377q-3 -46 -41 -80q-9 -11 4 -21.5t24 -1.5q50 42 53 102q3 67 -52 115
q-8 6 -17.5 2.5t-13 -11t0.5 -13.5q44 -38 42 -92z" />
    <glyph glyph-name="xuanzhongon" unicode="&#xe74b;" 
d="M692 609h-360q-90 0 -153 -66t-63 -159t63 -159t153 -66h360q89 0 152.5 66t63.5 159t-63 159t-153 66zM692 197h-360q-75 0 -127.5 54.5t-52.5 132.5t52.5 132.5t127.5 54.5h360q74 0 127 -54.5t53 -132.5t-52.5 -132.5t-127.5 -54.5zM332 534q-60 0 -102 -44t-42 -106
t42 -106t101.5 -44t102 44t42.5 106t-42 106t-102 44zM692 608h-360q-90 0 -153 -66t-63 -159.5t63 -159.5t153 -66h360q89 0 152.5 66t63.5 159.5t-63 159.5t-153 66zM692.5 232q-59.5 0 -102 44t-42.5 106.5t42 106t102 43.5t102 -43.5t42 -106t-42 -106.5t-101.5 -44z
" />
    <glyph glyph-name="xuanzhong1" unicode="&#xe74c;" 
d="M692 609h-360q-90 0 -153 -66t-63 -159t63 -159t153 -66h360q89 0 152.5 66t63.5 159t-63 159t-153 66zM692 197h-360q-75 0 -127.5 54.5t-52.5 132.5t52.5 132.5t127.5 54.5h360q74 0 127 -54.5t53 -132.5t-52.5 -132.5t-127.5 -54.5zM332 534q-60 0 -102 -44t-42 -106
t42 -106t101.5 -44t102 44t42.5 106t-42 106t-102 44z" />
    <glyph glyph-name="shoucang" unicode="&#xe74d;" 
d="M917.5 477q-7.5 23 -34.5 27l-231 33l-103 207q-13 24 -37 24t-37 -24l-103 -207l-231 -33q-27 -4 -35 -27q-7 -23 13 -42l167 -161l-40 -228q-3 -21 9 -35q11 -13 29 -13q11 0 22 6l206 107l206 -108q14 -7 28 -5t23 13q12 14 9 35l-40 227l167 162q20 19 12.5 42z
M686 305q-11 -11 -9 -26l36 -207l-187 98q-14 7 -28 0l-187 -98l36 207q2 15 -9 26l-151 146l209 30q15 2 22 16l94 188l94 -188q6 -14 22 -16l209 -30zM686 305z" />
    <glyph glyph-name="shoucangon" unicode="&#xe74e;" 
d="M917.5 477q-7.5 23 -34.5 27l-231 33l-103 207q-13 24 -37 24t-37 -24l-103 -207l-231 -33q-27 -4 -35 -27q-7 -23 13 -42l167 -161l-40 -228q-3 -21 9 -35q11 -13 29 -13q11 0 22 6l206 107l206 -108q14 -7 28 -5t23 13q12 14 9 35l-40 227l167 162q20 19 12.5 42z
M686 305q-11 -11 -9 -26l36 -207l-187 98q-14 7 -28 0l-187 -98l36 207q2 15 -9 26l-151 146l209 30q15 2 22 16l94 188l94 -188q6 -14 22 -16l209 -30zM686 305zM918 478q-8 23 -35 27l-231 33l-103 207q-13 24 -37 24t-37 -24l-103 -207l-231 -34q-27 -3 -35 -26
q-7 -23 13 -42l167 -162l-40 -227q-3 -21 9 -35q11 -13 29 -13q11 0 22 5l206 108l206 -108q14 -7 28 -5t23 13q12 14 9 35l-40 227l167 162q20 19 13 42zM686 306z" />
    <glyph glyph-name="kuaidi" unicode="&#xe74f;" horiz-adv-x="1226" 
d="M951 558q-11 17 -31 17h-39q-16 0 -27 -11.5t-11 -26.5v-230q0 -16 11 -27.5t27 -11.5h153q16 0 27.5 11.5t11.5 27.5v57q0 12 -7 22zM1034 307h-153v230h39l114 -173v-57zM1207 409l-153 230q-16 24 -41.5 37.5t-54.5 13.5h-153v76q0 48 -34 81.5t-81 33.5h-575
q-48 0 -81.5 -33.5t-33.5 -81.5v-421q0 -48 33.5 -81.5t81.5 -33.5v-115q0 -47 33.5 -81t81.5 -34h44q13 -50 54 -82.5t93.5 -32.5t93.5 32.5t54 82.5h203q13 -50 54 -82.5t94 -32.5t94 32.5t54 82.5h43q48 0 81.5 34t33.5 81v230q0 35 -19 64zM115 307q-16 0 -27.5 11
t-11.5 27v422q0 15 11.5 26.5t27.5 11.5h575q15 0 26.5 -11.5t11.5 -26.5v-422q0 -16 -11.5 -27t-26.5 -11h-575zM421.5 -38q-31.5 0 -54 22.5t-22.5 54t22.5 54t54 22.5t54 -22.5t22.5 -54t-22.5 -54t-54 -22.5zM919.5 -38q-31.5 0 -54 22.5t-22.5 54t22.5 54t54 22.5
t54 -22.5t22.5 -54t-22.5 -54t-54 -22.5zM1149 115q0 -16 -11 -27t-27 -11h-44q-13 50 -54 82.5t-93.5 32.5t-93.5 -32.5t-54 -82.5h-203q-13 50 -54 82.5t-94 32.5t-94 -32.5t-54 -82.5h-43q-16 0 -27.5 11t-11.5 27v115h499q47 0 80.5 33.5t33.5 81.5v268h154q20 0 32 -17
l153 -230q6 -9 6 -21v-230v0zM1149 115z" />
    <glyph glyph-name="xianshiqianggou" unicode="&#xe750;" 
d="M520 523h-15v-194h257v16h-242v178zM520 756v44h36v16h-87v-16h36v-44q-109 -2 -201.5 -57t-146 -148.5t-53.5 -202.5q0 -111 55 -205t149 -148.5t204.5 -54.5t204.5 54.5t149 148.5t55 205q0 109 -53.5 202.5t-146 148.5t-201.5 57zM869 348q0 -74 -28 -139
q-27 -65 -76 -114t-114 -76q-67 -28 -138 -28q-74 0 -139 28q-65 27 -114 76t-76 114q-28 67 -28 139q0 73 28 138q27 65 76 114t114 76q67 29 139 29q73 0 138 -29q65 -27 114 -76t76 -114q28 -67 28 -138zM881 605l42 29q-53 75 -128 127q-77 52 -168 74l-12 -50
q82 -19 150 -66q69 -48 116 -114zM257 716q67 47 145 67l-12 50q-88 -23 -162 -75q-75 -51 -126 -124l42 -29q46 66 113 111z" />
    <glyph glyph-name="xing" unicode="&#xe751;" 
d="M917.5 477q-7.5 23 -34.5 27l-231 33l-103 207q-13 24 -37 24t-37 -24l-103 -207l-231 -33q-27 -4 -35 -27q-7 -23 13 -42l167 -161l-40 -228q-3 -21 9 -35q11 -13 29 -13q11 0 22 6l206 107l206 -108q14 -7 28 -5t23 13q12 14 9 35l-40 227l167 162q20 19 12.5 42z
M686 305q-11 -11 -9 -26l36 -207l-187 98q-14 7 -28 0l-187 -98l36 207q2 15 -9 26l-151 146l209 30q15 2 22 16l94 188l94 -188q6 -14 22 -16l209 -30zM686 305z" />
    <glyph glyph-name="yanchangshouhuo" unicode="&#xe752;" 
d="M433 193l-322 212v-137l322 -212v137v0zM433 193zM990 526q1 8 -5 13q-2 6 -6 8l-460 303q-4 3 -10 4l-261 5q-14 0 -18.5 -12.5t6.5 -19.5l119 -79l-57 -38q-3 -1 -6 -3l-250 -168q-8 -5 -8 -14v0l-1 -1v-295l8 -14l460 -303v0l3 -2q4 -2 8 -2q7 0 11 4l97 63
q-9 16 -14 33l-75 -48v252l423 278v-252l-4 -2q14 -12 25 -27l8 6q8 5 8 14v295q0 1 -0.5 1.5zM493 -40l-423 278v252l423 -278v-252v0zM513 243l-428 282l205 138l428 -282zM713 555l-405 267l194 -3l406 -267zM713 555zM795.5 265q-72.5 0 -123.5 -51t-51 -123.5
t51 -123.5t123.5 -51t123.5 51t51 123.5t-51 123.5t-123.5 51zM921 62h-154v154h52v-102h102v-52zM921 62z" />
    <glyph glyph-name="pingjia" unicode="&#xe753;" 
d="M880 -115h-743q-51 0 -87 36.5t-36 87.5v743q0 52 36.5 91t87.5 39h498v-63h-498q-25 0 -43.5 -20.5t-18.5 -46.5v-743q0 -26 18 -44t44 -18h742q26 0 47 19t21 44v498h62v-498q0 -51 -39 -88t-91 -37zM479 154q-12 -12 -32 -16l-271 -134q-23 -10 -37.5 5.5t-6.5 38.5
l134 271q4 20 16 32l481 482q19 18 44.5 18t43.5 -18l109 -110q18 -18 18 -43.5t-18 -44.5zM192 85q-6 -11 2 -19t19 -3l168 102l-88 88zM326 307l349 350l110 -109l-350 -350l-42 42l-45 45zM895 701l-66 66q-9 9 -22 9t-22 -9l-64 -64l108 -111l65 65q10 10 10 22.5
t-9 21.5zM895 701z" />
    <glyph glyph-name="youzhengbianma" unicode="&#xe754;" 
d="M201 258h621v-62h-621v62zM201 258zM201 445h311v-62h-311v62zM201 445zM841 10h-658q-44 0 -75.5 31t-31.5 74v536q0 44 31.5 74.5t75.5 30.5h658q44 0 75.5 -31t31.5 -74v-536q0 -43 -31.5 -74t-75.5 -31zM183 694q-18 0 -31.5 -12.5t-13.5 -30.5v-536
q0 -18 13.5 -30.5t31.5 -12.5h658q18 0 31.5 12.5t13.5 30.5v536q0 18 -13.5 30.5t-31.5 12.5h-658v0zM183 694zM636 570h125v-125h-125v125zM636 570z" />
    <glyph glyph-name="pingjiaxing" unicode="&#xe755;" horiz-adv-x="2403" 
d="M1571 445q-9 28 -41 33l-277 39l-123 248q-15 30 -44 30t-44 -30l-124 -248l-276 -40q-33 -4 -42 -32q-9 -27 15 -50l200 -193l-47 -272q-5 -26 10 -42q13 -16 34 -16q13 0 27 7l247 128l247 -128q16 -9 33 -6.5t28 15.5q14 17 10 42l-47 272l199 193q25 22 15 50z
M1497 387l-175 -168l42 -238q4 -22 -9 -37q-9 -11 -24 -13t-29 5l-216 113l-216 -113q-11 -6 -23 -6q-18 0 -30 14q-13 15 -9 37l41 238l-174 168q-21 20 -13 44t36 28l242 35l108 216q12 26 37.5 26t38.5 -26l108 -216l241 -35q29 -4 37 -28t-13 -44z" />
    <glyph glyph-name="diqu" unicode="&#xe756;" 
d="M512 -19l-12 7q-135 76 -215 181q-100 131 -100 289q0 65 26 126q25 59 70 104t104 70q60 26 127 26q135 0 231 -95.5t96 -230.5q0 -159 -101 -289q-79 -105 -214 -181zM512 734q-114 0 -196 -81q-38 -39 -59 -89q-22 -51 -22 -107q0 -140 90 -258q70 -92 187 -161
q117 69 187 161q90 117 90 258q0 115 -81 196t-196 81zM512 734zM508 302q-63 0 -107.5 44.5t-44.5 107.5t44.5 108t107.5 45q10 0 17.5 -7.5t7.5 -18t-7.5 -17.5t-17.5 -7q-42 0 -72.5 -30.5t-30.5 -72.5t30.5 -72.5t72.5 -30.5t72.5 30.5t30.5 72.5t-30 72q-7 7 -7 17.5
t7.5 17.5t17.5 7t18 -7q43 -45 43 -107q0 -63 -44.5 -107.5t-107.5 -44.5zM508 302z" />
    <glyph glyph-name="pingjiaxingon" unicode="&#xe757;" horiz-adv-x="2403" 
d="M1571 445q-9 28 -41 33l-277 39l-123 248q-15 30 -44 30t-44 -30l-124 -248l-276 -40q-33 -4 -42 -32q-9 -27 15 -50l200 -193l-47 -272q-5 -26 10 -42q13 -16 34 -16q13 0 27 7l247 128l247 -128q16 -9 33 -6.5t28 15.5q14 17 10 42l-47 272l199 193q25 22 15 50z
M1497 387l-175 -168l42 -238q4 -22 -9 -37q-9 -11 -24 -13t-29 5l-216 113l-216 -113q-11 -6 -23 -6q-18 0 -30 14q-13 15 -9 37l41 238l-174 168q-21 20 -13 44t36 28l242 35l108 216q12 26 37.5 26t38.5 -26l108 -216l241 -35q29 -4 37 -28t-13 -44zM1571 445
q-9 28 -41 33l-277 39l-123 248q-15 30 -44 30t-44 -30l-124 -248l-276 -40q-33 -4 -42 -32q-9 -27 15 -50l200 -193l-47 -272q-5 -26 10 -42q13 -16 34 -16q13 0 27 7l247 128l247 -128q16 -9 33 -6.5t28 15.5q14 17 10 42l-47 272l199 193q25 22 15 50zM1571 445z" />
    <glyph glyph-name="xingming" unicode="&#xe758;" 
d="M581 327q-3 1 -6.5 4.5t-7 14t3.5 28.5v0q24 25 40 62t16 75q0 57 -33 89t-82 32t-81.5 -32t-32.5 -89q0 -38 15.5 -75t40.5 -62q7 -16 2.5 -26.5t-8.5 -14.5t-9 -6q-56 -20 -98 -49.5t-42 -58.5v-15q0 -70 214 -70q42 0 77 3t67 10t50 21.5t18 35.5v15q0 30 -43 59.5
t-101 48.5zM581 327zM512 -52q-88 0 -169 34.5t-139 92.5t-92.5 139t-34.5 169t34.5 169t92.5 139t139 92.5t169 34.5t169 -34.5t139 -92.5t92.5 -139t34.5 -169t-34.5 -169t-92.5 -139t-139 -92.5t-169 -34.5zM512 756q-101 0 -187 -50t-136 -136t-50 -187t50 -187
t136 -136t187 -50t187 50t136 136t50 187t-50 187t-136 136t-187 50zM512 756z" />
    <glyph glyph-name="shanchu" unicode="&#xe759;" 
d="M994 654h-964q-12 0 -21 9t-9 21.5t9 21.5t21 9h964q12 0 21 -9t9 -21q0 -13 -9 -22t-21 -9zM783 -128h-572q-37 0 -63.5 26.5t-26.5 63.5v602q0 13 9 21.5t21 8.5t21 -8.5t9 -21.5v-602q0 -12 8.5 -21t21.5 -9h572q13 0 21.5 9t8.5 21v603q0 12 8.5 21t21.5 9
q12 0 21 -9t9 -21v-602q0 -38 -26.5 -64.5t-63.5 -26.5zM752.5 685q-12.5 0 -21 8.5t-8.5 21.5v91q0 12 -9 21t-21 9h-392q-12 0 -21.5 -9t-9.5 -21v-90q0 -13 -8.5 -21.5t-20.5 -8.5t-20.5 8.5t-8.5 21.5v90q0 37 26 63.5t63 26.5h392q37 0 63 -26.5t26 -63.5v-90
q0 -13 -8.5 -22t-21 -9zM391 23q-13 0 -21.5 8.5t-8.5 21.5v391q0 13 9 22t21.5 9t21 -9t8.5 -22v-391q0 -13 -8.5 -21.5t-21.5 -8.5zM602.5 23q-12.5 0 -21.5 8.5t-9 21.5v391q0 13 9 22t22 9q12 0 21 -9t9 -22v-391q0 -13 -9 -21.5t-21.5 -8.5z" />
    <glyph glyph-name="dianhua1" unicode="&#xe75a;" 
d="M512 -52q-88 0 -169 34.5t-139 92.5t-92.5 139t-34.5 169t34.5 169t92.5 139t139 92.5t169 34.5t169 -34.5t139 -92.5t92.5 -139t34.5 -169t-34.5 -169t-92.5 -139t-139 -92.5t-169 -34.5zM512 756q-101 0 -187 -50t-136 -136t-50 -187t50 -187t136 -136t187 -50t187 50
t136 136t50 187t-50 187t-136 136t-187 50zM512 756zM681 182q20 11 34 21l3 2t4 3q9 7 9 18t-8 18l-98 80q-6 6 -15 6t-16 -7l-16 -16q-8 -8 -19 -8t-18 8l-100 99q-7 8 -7 18.5t7 18.5l17 16q6 7 6 17q0 9 -6 16l-84 101q-7 9 -18 9q-12 0 -19 -10l-2 -2q-42 -56 -42 -100
q0 -48 60 -127t138.5 -139t127.5 -60h2.5h2.5q31 3 57 18zM681 182z" />
    <glyph glyph-name="moren1" unicode="&#xe75b;" 
d="M512 787q-110 0 -202.5 -54t-146.5 -147t-54 -202.5t54 -202.5t146.5 -147t202.5 -54t202.5 54t146.5 147t54 202.5t-54 202.5t-146.5 147t-202.5 54zM512 34q-95 0 -175.5 46.5t-127 127t-46.5 175.5t46.5 175.5t127 127.5t175.5 47t175.5 -47t127 -127.5t47 -175.5
t-46.5 -175.5t-127.5 -127t-175.5 -46.5zM512 34zM512 787q-110 0 -202.5 -54t-146.5 -147t-54 -202.5t54 -202.5t146.5 -147t202.5 -54t202.5 54t146.5 147t54 202.5t-54 202.5t-146.5 147t-202.5 54zM512 34q-95 0 -175.5 46.5t-127 127t-46.5 175.5t46.5 175.5t127 127.5
t175.5 47t175.5 -47t127 -127.5t47 -175.5t-46.5 -175.5t-127.5 -127t-175.5 -46.5zM512 34z" />
    <glyph glyph-name="zhifu" unicode="&#xe75c;" 
d="M712 51h-530q-41 0 -70.5 29.5t-29.5 71.5v319q0 41 29.5 70.5t70.5 29.5h323q9 0 16 -6.5t7 -16.5t-7 -16.5t-16 -6.5h-323q-22 0 -38 -16t-16 -38v-319q0 -22 16 -38t38 -16h530q22 0 38 16t16 38v130q0 10 6.5 16.5t16 6.5t16.5 -6.5t7 -16.5v-130q0 -42 -29.5 -71.5
t-70.5 -29.5zM712 51zM500 424h-395v-90h444zM500 424zM706 242q-98 0 -167 69.5t-69 167t69 167t167 69.5t167 -69.5t69 -167t-69 -167t-167 -69.5zM706.5 669q-78.5 0 -134.5 -56t-56 -134.5t56 -134t134.5 -55.5t134 55.5t55.5 134t-55.5 134.5t-134 56zM706 669z
M706 476q-8 0 -13 6l-67 72q-5 6 -4.5 13.5t6 12.5t13 4.5t12.5 -5.5l53 -58l54 58q5 5 12.5 5.5t13 -4.5t5.5 -12.5t-5 -13.5l-66 -72q-6 -6 -14 -6zM706 476zM779 476h-146q-7 0 -12.5 5t-5.5 12.5t5.5 13t12.5 5.5h146q7 0 12.5 -5.5t5.5 -13t-5.5 -12.5t-12.5 -5z
M779 476zM785 410h-158q-7 0 -12.5 5.5t-5.5 13t5.5 12.5t12.5 5h158q7 0 12.5 -5t5.5 -12.5t-5.5 -13t-12.5 -5.5zM785 410zM706.5 352q-7.5 0 -13 5.5t-5.5 12.5v124q0 7 5.5 12.5t13 5.5t12.5 -5.5t5 -12.5v-124q0 -7 -5 -12.5t-12.5 -5.5zM706 352z" />
    <glyph glyph-name="danxuan" unicode="&#xe75d;" 
d="M512 787q-110 0 -202.5 -54t-146.5 -147t-54 -202.5t54 -202.5t146.5 -147t202.5 -54t202.5 54t146.5 147t54 202.5t-54 202.5t-146.5 147t-202.5 54zM512 34q-95 0 -175.5 46.5t-127 127t-46.5 175.5t46.5 175.5t127 127.5t175.5 47t175.5 -47t127 -127.5t47 -175.5
t-46.5 -175.5t-127.5 -127t-175.5 -46.5zM512 34zM512 787q-110 0 -202.5 -54t-146.5 -147t-54 -202.5t54 -202.5t146.5 -147t202.5 -54t202.5 54t146.5 147t54 202.5t-54 202.5t-146.5 147t-202.5 54zM512 34q-95 0 -175.5 46.5t-127 127t-46.5 175.5t46.5 175.5t127 127.5
t175.5 47t175.5 -47t127 -127.5t47 -175.5t-46.5 -175.5t-127.5 -127t-175.5 -46.5zM512 34z" />
    <glyph glyph-name="xiangxidizhi" unicode="&#xe75e;" 
d="M821 439l-72 -145q-8 -7 -18 -7v-1h-146v-195q0 -40 -28.5 -68.5t-69.5 -28.5h-48q-41 0 -69.5 28.5t-28.5 68.5v195h-97q-21 0 -35 14.5t-14 34.5v243q0 21 14 35t35 14h97v49q0 40 28.5 68.5t68.5 28.5h49q40 0 69 -28.5t29 -68.5v-49h145q11 1 19 -7l72 -144
q7 -14 7 -19q-1 -8 -7 -18zM390 91q0 -20 14 -34t34 -14h49q20 0 34.5 14t14.5 34v195h-146v-195zM536 676q0 20 -14.5 34.5t-34.5 14.5h-48q-21 0 -35 -14.5t-14 -34.5v-49h146v49zM720 574q-7 4 -14 4h-438q-10 0 -17 -7t-7 -17v-195q0 -10 7 -17t17 -7h438q7 0 14 4
l59 118zM720 574z" />
    <glyph glyph-name="morenon" unicode="&#xe75f;" 
d="M512 787q-110 0 -202.5 -54t-146.5 -147t-54 -202.5t54 -202.5t146.5 -147t202.5 -54t202.5 54t146.5 147t54 202.5t-54 202.5t-146.5 147t-202.5 54zM512 34q-95 0 -175.5 46.5t-127 127t-46.5 175.5t46.5 175.5t127 127.5t175.5 47t175.5 -47t127 -127.5t47 -175.5
t-46.5 -175.5t-127.5 -127t-175.5 -46.5zM512 34zM512 787q-110 0 -202.5 -54t-146.5 -147t-54 -202.5t54 -202.5t146.5 -147t202.5 -54t202.5 54t146.5 147t54 202.5t-54 202.5t-146.5 147t-202.5 54zM512 34q-95 0 -175.5 46.5t-127 127t-46.5 175.5t46.5 175.5t127 127.5
t175.5 47t175.5 -47t127 -127.5t47 -175.5t-46.5 -175.5t-127.5 -127t-175.5 -46.5zM512 34zM512 384zM251 384q0 -108 76.5 -184.5t184.5 -76.5t184.5 76.5t76.5 184.5t-76.5 184.5t-184.5 76.5t-184.5 -76.5t-76.5 -184.5z" />
    <glyph glyph-name="daifukuan" unicode="&#xe760;" 
d="M841 72h-682q-4 0 -7 3t-3 7v491q0 4 3 7t7 3h682q5 0 7.5 -3t2.5 -7v-140q0 -4 -2.5 -7t-7 -3t-7.5 3t-3 7v130h-662v-471h662v136q0 4 3 7t7.5 3t7 -3t2.5 -7v-146q0 -10 -10 -10zM841 72zM865 218h-240q-42 0 -72 32t-30 77.5t30 77.5t72 32h240q4 0 7 -3t3 -7v-199
q0 -4 -3 -7t-7 -3zM625 417q-34 0 -58 -26t-24 -63t24 -63.5t58 -26.5h230v179h-230zM625 417zM159 568q-4 0 -7 3t-3 7q0 46 29 80q30 36 72 36h518q4 0 7 -3t3 -7v-102q0 -4 -3 -7t-7 -3t-7 3t-3 7v92h-508q-32 0 -56.5 -29t-24.5 -67q0 -10 -10 -10zM159 568zM658 277
q-22 0 -37.5 15t-15.5 35.5t15.5 35.5t37.5 15t37.5 -15t15.5 -35.5t-15.5 -35.5t-37.5 -15zM658.5 358q-13.5 0 -23.5 -9t-10 -21.5t10 -21.5t23.5 -9t23 9t9.5 21.5t-9.5 21.5t-23 9zM658 358z" />
    <glyph glyph-name="danxuanon" unicode="&#xe761;" 
d="M511.5 787q-109.5 0 -202.5 -54t-146.5 -147t-53.5 -202.5t53.5 -202.5t146.5 -147t202.5 -54t202.5 54t147 147t54 202.5t-54 202.5t-147 147t-202.5 54zM512 34q-95 0 -175.5 46.5t-127.5 127t-47 175.5t47 175.5t127.5 127.5t175.5 47t175.5 -47t127 -127.5
t46.5 -175.5t-46.5 -175.5t-127 -127t-175.5 -46.5zM512 34zM511.5 787q-109.5 0 -202.5 -54t-146.5 -147t-53.5 -202.5t53.5 -202.5t146.5 -147t202.5 -54t202.5 54t147 147t54 202.5t-54 202.5t-147 147t-202.5 54zM512 34q-95 0 -175.5 46.5t-127.5 127t-47 175.5
t47 175.5t127.5 127.5t175.5 47t175.5 -47t127 -127.5t46.5 -175.5t-46.5 -175.5t-127 -127t-175.5 -46.5zM512 34zM512 787q-110 0 -203 -54t-147 -147t-54 -202.5t54 -202.5t147 -147t203 -54t203 54t147 147t54 202.5t-54.5 202.5t-147 147t-202.5 54zM773 526l-326 -323
h-3l-193 189h-1q-5 7 -5 17q0 11 7.5 19t19.5 8q9 0 17 -6q2 -2 2 -3l154 -153l289 289q8 9 20 9q11 0 19 -7.5t8 -19.5q0 -11 -8 -19zM773 526z" />
    <glyph glyph-name="daifahuo" unicode="&#xe762;" 
d="M584 387q0 -4 -3 -7t-7 -3h-426q-4 0 -7 3t-3 7v307q0 4 3 7t7 3h426q4 0 7 -3t3 -7v-307zM158 397h406v287h-406v-287zM158 397zM876 194h-19q-4 0 -7 4q-40 46 -86 46t-85 -46q-4 -4 -8 -4h-234q-4 0 -7 4q-40 46 -86 46t-86 -46q-3 -4 -7 -4h-103q-4 0 -7 3t-3 7v115
q0 4 3 6.5t7 2.5h466v148q0 4 3 7t7 3h238q9 0 10 -9l14 -129v-1v-1v-142q0 -10 -10 -10zM862 214h4v132l-13 120h-219v-147q0 -10 -9 -10h-467v-95h88q47 50 98 50t98 -50h224q47 50 98 50t98 -50zM862 214zM344 63q-31 0 -52.5 22t-21.5 52.5t21.5 52.5t52.5 22t52.5 -22
t21.5 -52.5t-21.5 -52.5t-52.5 -22zM344.5 192q-22.5 0 -38.5 -16t-16 -38.5t16 -38.5t38 -16t38 16t16 38.5t-15.5 38.5t-38 16zM344 192zM766 63q-31 0 -52.5 22t-21.5 52.5t21.5 52.5t52.5 22t53 -22t22 -52.5t-22 -52.5t-53 -22zM766.5 192q-22.5 0 -38.5 -16t-16 -38.5
t16 -38.5t38.5 -16t38.5 16t16 38.5t-16 38.5t-38.5 16zM766 192z" />
    <glyph glyph-name="daipingjia" unicode="&#xe763;" 
d="M173 386v0q-10 0 -10 10q5 141 106 238q102 98 243 98q87 0 163.5 -41t125.5 -113q6 -8 -3 -14q-8 -5 -13 3q-47 68 -119 106.5t-154 38.5q-134 0 -229 -91.5t-100 -225.5q0 -9 -10 -9zM173 386zM512 34q-101 0 -186 53q-82 52 -126 139q-4 9 4.5 13.5t13.5 -4.5
q42 -84 121 -132.5t173 -48.5q89 0 165 44t120 120t44 165q0 21 -3 43q-1 10 9 11t11 -9q3 -22 3 -45q0 -71 -28 -136q-26 -62 -74 -111q-49 -48 -111 -75q-65 -27 -136 -27zM512 34zM169 370h-1q-4 1 -7 4l-44 57q-6 8 1.5 14t14.5 -1l38 -50l51 41q7 6 13.5 -1.5
t-1.5 -14.5l-59 -46q-2 -3 -6 -3zM169 370zM804 378q-3 0 -6 2q-8 6 -1 14l41 55q3 3 7.5 3.5t7.5 -2.5l53 -51q7 -7 0.5 -14t-14.5 0l-44 43l-35 -46q-4 -4 -9 -4zM804 378zM499 264q-3 0 -6 3l-142 126q-7 7 -0.5 14.5t14.5 0.5l133 -119l182 215q7 8 14.5 1.5t1.5 -14.5
l-189 -223q-2 -3 -7 -4h-1zM499 264z" />
    <glyph glyph-name="tuikuan" unicode="&#xe764;" 
d="M502 210q-5 0 -8 3.5t-3 7.5v89h-79q-5 0 -8.5 3.5t-3.5 8t3.5 8t8.5 3.5h79v50h-79q-5 0 -8.5 3.5t-3.5 8t3.5 8t8.5 3.5h79v26l-77 76q-8 8 0 16q3 4 8 4t8 -4l67 -66h5l6 -1l67 67q3 4 8 4t8 -4q8 -8 0 -16l-77 -77v-25h85q5 0 8 -3.5t3 -8t-3 -8t-8 -3.5h-85v-50h85
q5 0 8 -3.5t3 -8t-3 -8t-8 -3.5h-85v-89q0 -4 -3.5 -7.5t-8.5 -3.5zM502 210zM495 53q-67 0 -129 26q-60 26 -105 71q-45 46 -71 105q-25 62 -25 129t25 128q26 59 71.5 105t104.5 71q61 26 129 26q67 0 128 -26q60 -25 105 -71q39 -38 63 -87l10 -20l36 63q3 5 10 5
q3 0 5 -1q4 -2 5.5 -7t-0.5 -9l-55 -95q-3 -5 -8 -5l-2 -1h-1q-2 -1 -4 -1q-3 0 -6 1l-95 55q-10 5 -4 15q3 6 10 6q3 0 5 -1l91 -53l-17 35q-38 79 -113.5 126.5t-162.5 47.5q-127 0 -217.5 -90t-90.5 -217t90.5 -217.5t217.5 -90.5q76 0 144 36t110 100h1v1v1h1v0v1
q4 4 9 4t8.5 -4t3.5 -9t-4 -9l-1 -1l-1 -2q-17 -23 -38 -44q-45 -45 -105 -71q-61 -26 -128 -26zM495 53z" />
    <glyph glyph-name="dingdan" unicode="&#xe766;" horiz-adv-x="1326" 
d="M382 830h295v66h-295v-66zM406 713h246v68h-246v-68zM490 830v-49h79v49h-79zM897 526l1 -482q0 -103 -98 -103h-541q-102 0 -102 103v614q0 42 18 61t59 19h49v68h-49q-61 0 -104 -43t-43 -105v-614q0 -71 50.5 -121.5t121.5 -50.5h541q71 0 121.5 50.5t50.5 121.5v614
q0 62 -43 105t-105 43h-49v-64h49q40 0 56.5 -20t16.5 -64v-132v0z" />
    <glyph glyph-name="daishouhuo" unicode="&#xe767;" 
d="M869 58h-714q-5 0 -7.5 3t-2.5 7v514q0 5 2.5 7.5t7.5 2.5h714q5 0 7.5 -2.5t2.5 -7.5v-514q0 -4 -2.5 -7t-7.5 -3zM165 78h694v494h-694v-494zM165 78zM154.5 578q-4.5 0 -7 2.5t-2.5 7.5q0 47 30 83q31 38 75 38h543q4 0 7 -3t3 -7v-107q0 -4 -3 -7t-7.5 -3t-7 3
t-2.5 7v97h-533q-34 0 -60 -30.5t-26 -70.5q0 -5 -2.5 -7.5t-7 -2.5zM155 578zM369 427q-4 0 -7 2q-7 7 0 14q55 56 132 56q64 0 114 -39q8 -6 1.5 -13.5t-13.5 -1.5q-45 34 -101 34q-70 0 -118 -50q-4 -2 -8 -2zM369 427zM494.5 129q-76.5 0 -131 54t-54.5 131q0 24 6 47
q3 10 12.5 7.5t7.5 -12.5q-6 -20 -6 -42q0 -68 48.5 -116.5t117 -48.5t117 48.5t48.5 116.5q0 37 -16 71q-4 9 5 13t13 -5q18 -37 18 -79q0 -77 -54.5 -131t-131 -54zM494 129zM496 254q-4 0 -7 3l-157 140q-7 6 -0.5 13.5t13.5 1.5l150 -133l202 240q7 7 14.5 1t0.5 -14
l-209 -248q-2 -3 -7 -3v-1zM496 254z" />
  </font>
</defs>
</svg>
